G04 #@! TF.GenerationSoftware,KiCad,Pcbnew,(5.1.2-1)-1*
G04 #@! TF.CreationDate,2019-08-04T21:57:59+02:00*
G04 #@! TF.ProjectId,AtomIOExt,41746f6d-494f-4457-9874-2e6b69636164,rev?*
G04 #@! TF.SameCoordinates,Original*
G04 #@! TF.FileFunction,Legend,Top*
G04 #@! TF.FilePolarity,Positive*
%FSLAX46Y46*%
G04 Gerber Fmt 4.6, Leading zero omitted, Abs format (unit mm)*
G04 Created by KiCad (PCBNEW (5.1.2-1)-1) date 2019-08-04 21:57:59*
%MOMM*%
%LPD*%
G04 APERTURE LIST*
%ADD10C,0.300000*%
%ADD11C,0.500000*%
%ADD12C,0.120000*%
%ADD13C,0.150000*%
G04 APERTURE END LIST*
D10*
X241978571Y-40540000D02*
X240478571Y-40540000D01*
X240478571Y-39968571D01*
X240550000Y-39825714D01*
X240621428Y-39754285D01*
X240764285Y-39682857D01*
X240978571Y-39682857D01*
X241121428Y-39754285D01*
X241192857Y-39825714D01*
X241264285Y-39968571D01*
X241264285Y-40540000D01*
X241978571Y-39040000D02*
X240978571Y-39040000D01*
X241264285Y-39040000D02*
X241121428Y-38968571D01*
X241050000Y-38897142D01*
X240978571Y-38754285D01*
X240978571Y-38611428D01*
X241978571Y-38111428D02*
X240978571Y-38111428D01*
X240478571Y-38111428D02*
X240550000Y-38182857D01*
X240621428Y-38111428D01*
X240550000Y-38040000D01*
X240478571Y-38111428D01*
X240621428Y-38111428D01*
X240978571Y-37397142D02*
X241978571Y-37397142D01*
X241121428Y-37397142D02*
X241050000Y-37325714D01*
X240978571Y-37182857D01*
X240978571Y-36968571D01*
X241050000Y-36825714D01*
X241192857Y-36754285D01*
X241978571Y-36754285D01*
X240978571Y-36254285D02*
X240978571Y-35682857D01*
X240478571Y-36040000D02*
X241764285Y-36040000D01*
X241907142Y-35968571D01*
X241978571Y-35825714D01*
X241978571Y-35682857D01*
X241907142Y-34611428D02*
X241978571Y-34754285D01*
X241978571Y-35040000D01*
X241907142Y-35182857D01*
X241764285Y-35254285D01*
X241192857Y-35254285D01*
X241050000Y-35182857D01*
X240978571Y-35040000D01*
X240978571Y-34754285D01*
X241050000Y-34611428D01*
X241192857Y-34540000D01*
X241335714Y-34540000D01*
X241478571Y-35254285D01*
X241978571Y-33897142D02*
X240978571Y-33897142D01*
X241264285Y-33897142D02*
X241121428Y-33825714D01*
X241050000Y-33754285D01*
X240978571Y-33611428D01*
X240978571Y-33468571D01*
X240978571Y-31825714D02*
X242478571Y-31825714D01*
X241050000Y-31825714D02*
X240978571Y-31682857D01*
X240978571Y-31397142D01*
X241050000Y-31254285D01*
X241121428Y-31182857D01*
X241264285Y-31111428D01*
X241692857Y-31111428D01*
X241835714Y-31182857D01*
X241907142Y-31254285D01*
X241978571Y-31397142D01*
X241978571Y-31682857D01*
X241907142Y-31825714D01*
X241978571Y-30254285D02*
X241907142Y-30397142D01*
X241835714Y-30468571D01*
X241692857Y-30540000D01*
X241264285Y-30540000D01*
X241121428Y-30468571D01*
X241050000Y-30397142D01*
X240978571Y-30254285D01*
X240978571Y-30040000D01*
X241050000Y-29897142D01*
X241121428Y-29825714D01*
X241264285Y-29754285D01*
X241692857Y-29754285D01*
X241835714Y-29825714D01*
X241907142Y-29897142D01*
X241978571Y-30040000D01*
X241978571Y-30254285D01*
X241978571Y-29111428D02*
X240978571Y-29111428D01*
X241264285Y-29111428D02*
X241121428Y-29040000D01*
X241050000Y-28968571D01*
X240978571Y-28825714D01*
X240978571Y-28682857D01*
X240978571Y-28397142D02*
X240978571Y-27825714D01*
X240478571Y-28182857D02*
X241764285Y-28182857D01*
X241907142Y-28111428D01*
X241978571Y-27968571D01*
X241978571Y-27825714D01*
X146464285Y-109180000D02*
X146392857Y-109108571D01*
X146250000Y-108894285D01*
X146178571Y-108751428D01*
X146107142Y-108537142D01*
X146035714Y-108180000D01*
X146035714Y-107894285D01*
X146107142Y-107537142D01*
X146178571Y-107322857D01*
X146250000Y-107180000D01*
X146392857Y-106965714D01*
X146464285Y-106894285D01*
X147678571Y-108537142D02*
X147535714Y-108608571D01*
X147250000Y-108608571D01*
X147107142Y-108537142D01*
X147035714Y-108465714D01*
X146964285Y-108322857D01*
X146964285Y-107894285D01*
X147035714Y-107751428D01*
X147107142Y-107680000D01*
X147250000Y-107608571D01*
X147535714Y-107608571D01*
X147678571Y-107680000D01*
X148178571Y-109180000D02*
X148250000Y-109108571D01*
X148392857Y-108894285D01*
X148464285Y-108751428D01*
X148535714Y-108537142D01*
X148607142Y-108180000D01*
X148607142Y-107894285D01*
X148535714Y-107537142D01*
X148464285Y-107322857D01*
X148392857Y-107180000D01*
X148250000Y-106965714D01*
X148178571Y-106894285D01*
X151321428Y-108608571D02*
X150821428Y-107894285D01*
X150464285Y-108608571D02*
X150464285Y-107108571D01*
X151035714Y-107108571D01*
X151178571Y-107180000D01*
X151250000Y-107251428D01*
X151321428Y-107394285D01*
X151321428Y-107608571D01*
X151250000Y-107751428D01*
X151178571Y-107822857D01*
X151035714Y-107894285D01*
X150464285Y-107894285D01*
X152178571Y-108608571D02*
X152035714Y-108537142D01*
X151964285Y-108465714D01*
X151892857Y-108322857D01*
X151892857Y-107894285D01*
X151964285Y-107751428D01*
X152035714Y-107680000D01*
X152178571Y-107608571D01*
X152392857Y-107608571D01*
X152535714Y-107680000D01*
X152607142Y-107751428D01*
X152678571Y-107894285D01*
X152678571Y-108322857D01*
X152607142Y-108465714D01*
X152535714Y-108537142D01*
X152392857Y-108608571D01*
X152178571Y-108608571D01*
X153535714Y-108608571D02*
X153392857Y-108537142D01*
X153321428Y-108394285D01*
X153321428Y-107108571D01*
X154750000Y-108608571D02*
X154750000Y-107822857D01*
X154678571Y-107680000D01*
X154535714Y-107608571D01*
X154250000Y-107608571D01*
X154107142Y-107680000D01*
X154750000Y-108537142D02*
X154607142Y-108608571D01*
X154250000Y-108608571D01*
X154107142Y-108537142D01*
X154035714Y-108394285D01*
X154035714Y-108251428D01*
X154107142Y-108108571D01*
X154250000Y-108037142D01*
X154607142Y-108037142D01*
X154750000Y-107965714D01*
X155464285Y-107608571D02*
X155464285Y-108608571D01*
X155464285Y-107751428D02*
X155535714Y-107680000D01*
X155678571Y-107608571D01*
X155892857Y-107608571D01*
X156035714Y-107680000D01*
X156107142Y-107822857D01*
X156107142Y-108608571D01*
X157464285Y-108608571D02*
X157464285Y-107108571D01*
X157464285Y-108537142D02*
X157321428Y-108608571D01*
X157035714Y-108608571D01*
X156892857Y-108537142D01*
X156821428Y-108465714D01*
X156750000Y-108322857D01*
X156750000Y-107894285D01*
X156821428Y-107751428D01*
X156892857Y-107680000D01*
X157035714Y-107608571D01*
X157321428Y-107608571D01*
X157464285Y-107680000D01*
X160035714Y-108608571D02*
X159321428Y-108608571D01*
X159321428Y-107108571D01*
X161107142Y-108537142D02*
X160964285Y-108608571D01*
X160678571Y-108608571D01*
X160535714Y-108537142D01*
X160464285Y-108394285D01*
X160464285Y-107822857D01*
X160535714Y-107680000D01*
X160678571Y-107608571D01*
X160964285Y-107608571D01*
X161107142Y-107680000D01*
X161178571Y-107822857D01*
X161178571Y-107965714D01*
X160464285Y-108108571D01*
X162464285Y-107608571D02*
X162464285Y-108608571D01*
X161821428Y-107608571D02*
X161821428Y-108394285D01*
X161892857Y-108537142D01*
X162035714Y-108608571D01*
X162250000Y-108608571D01*
X162392857Y-108537142D01*
X162464285Y-108465714D01*
X163178571Y-108608571D02*
X163178571Y-107608571D01*
X163178571Y-107894285D02*
X163250000Y-107751428D01*
X163321428Y-107680000D01*
X163464285Y-107608571D01*
X163607142Y-107608571D01*
X164035714Y-108537142D02*
X164178571Y-108608571D01*
X164464285Y-108608571D01*
X164607142Y-108537142D01*
X164678571Y-108394285D01*
X164678571Y-108322857D01*
X164607142Y-108180000D01*
X164464285Y-108108571D01*
X164250000Y-108108571D01*
X164107142Y-108037142D01*
X164035714Y-107894285D01*
X164035714Y-107822857D01*
X164107142Y-107680000D01*
X164250000Y-107608571D01*
X164464285Y-107608571D01*
X164607142Y-107680000D01*
X166392857Y-107251428D02*
X166464285Y-107180000D01*
X166607142Y-107108571D01*
X166964285Y-107108571D01*
X167107142Y-107180000D01*
X167178571Y-107251428D01*
X167250000Y-107394285D01*
X167250000Y-107537142D01*
X167178571Y-107751428D01*
X166321428Y-108608571D01*
X167250000Y-108608571D01*
X168178571Y-107108571D02*
X168321428Y-107108571D01*
X168464285Y-107180000D01*
X168535714Y-107251428D01*
X168607142Y-107394285D01*
X168678571Y-107680000D01*
X168678571Y-108037142D01*
X168607142Y-108322857D01*
X168535714Y-108465714D01*
X168464285Y-108537142D01*
X168321428Y-108608571D01*
X168178571Y-108608571D01*
X168035714Y-108537142D01*
X167964285Y-108465714D01*
X167892857Y-108322857D01*
X167821428Y-108037142D01*
X167821428Y-107680000D01*
X167892857Y-107394285D01*
X167964285Y-107251428D01*
X168035714Y-107180000D01*
X168178571Y-107108571D01*
X170107142Y-108608571D02*
X169250000Y-108608571D01*
X169678571Y-108608571D02*
X169678571Y-107108571D01*
X169535714Y-107322857D01*
X169392857Y-107465714D01*
X169250000Y-107537142D01*
X170821428Y-108608571D02*
X171107142Y-108608571D01*
X171250000Y-108537142D01*
X171321428Y-108465714D01*
X171464285Y-108251428D01*
X171535714Y-107965714D01*
X171535714Y-107394285D01*
X171464285Y-107251428D01*
X171392857Y-107180000D01*
X171250000Y-107108571D01*
X170964285Y-107108571D01*
X170821428Y-107180000D01*
X170750000Y-107251428D01*
X170678571Y-107394285D01*
X170678571Y-107751428D01*
X170750000Y-107894285D01*
X170821428Y-107965714D01*
X170964285Y-108037142D01*
X171250000Y-108037142D01*
X171392857Y-107965714D01*
X171464285Y-107894285D01*
X171535714Y-107751428D01*
X137000000Y-109658571D02*
X137500000Y-111158571D01*
X138000000Y-109658571D01*
X139071428Y-111087142D02*
X138928571Y-111158571D01*
X138642857Y-111158571D01*
X138500000Y-111087142D01*
X138428571Y-110944285D01*
X138428571Y-110372857D01*
X138500000Y-110230000D01*
X138642857Y-110158571D01*
X138928571Y-110158571D01*
X139071428Y-110230000D01*
X139142857Y-110372857D01*
X139142857Y-110515714D01*
X138428571Y-110658571D01*
X139785714Y-111158571D02*
X139785714Y-110158571D01*
X139785714Y-110444285D02*
X139857142Y-110301428D01*
X139928571Y-110230000D01*
X140071428Y-110158571D01*
X140214285Y-110158571D01*
X140642857Y-111087142D02*
X140785714Y-111158571D01*
X141071428Y-111158571D01*
X141214285Y-111087142D01*
X141285714Y-110944285D01*
X141285714Y-110872857D01*
X141214285Y-110730000D01*
X141071428Y-110658571D01*
X140857142Y-110658571D01*
X140714285Y-110587142D01*
X140642857Y-110444285D01*
X140642857Y-110372857D01*
X140714285Y-110230000D01*
X140857142Y-110158571D01*
X141071428Y-110158571D01*
X141214285Y-110230000D01*
X141928571Y-111158571D02*
X141928571Y-110158571D01*
X141928571Y-109658571D02*
X141857142Y-109730000D01*
X141928571Y-109801428D01*
X142000000Y-109730000D01*
X141928571Y-109658571D01*
X141928571Y-109801428D01*
X142857142Y-111158571D02*
X142714285Y-111087142D01*
X142642857Y-111015714D01*
X142571428Y-110872857D01*
X142571428Y-110444285D01*
X142642857Y-110301428D01*
X142714285Y-110230000D01*
X142857142Y-110158571D01*
X143071428Y-110158571D01*
X143214285Y-110230000D01*
X143285714Y-110301428D01*
X143357142Y-110444285D01*
X143357142Y-110872857D01*
X143285714Y-111015714D01*
X143214285Y-111087142D01*
X143071428Y-111158571D01*
X142857142Y-111158571D01*
X144000000Y-110158571D02*
X144000000Y-111158571D01*
X144000000Y-110301428D02*
X144071428Y-110230000D01*
X144214285Y-110158571D01*
X144428571Y-110158571D01*
X144571428Y-110230000D01*
X144642857Y-110372857D01*
X144642857Y-111158571D01*
X147285714Y-111158571D02*
X146428571Y-111158571D01*
X146857142Y-111158571D02*
X146857142Y-109658571D01*
X146714285Y-109872857D01*
X146571428Y-110015714D01*
X146428571Y-110087142D01*
X147928571Y-111015714D02*
X148000000Y-111087142D01*
X147928571Y-111158571D01*
X147857142Y-111087142D01*
X147928571Y-111015714D01*
X147928571Y-111158571D01*
X148928571Y-109658571D02*
X149071428Y-109658571D01*
X149214285Y-109730000D01*
X149285714Y-109801428D01*
X149357142Y-109944285D01*
X149428571Y-110230000D01*
X149428571Y-110587142D01*
X149357142Y-110872857D01*
X149285714Y-111015714D01*
X149214285Y-111087142D01*
X149071428Y-111158571D01*
X148928571Y-111158571D01*
X148785714Y-111087142D01*
X148714285Y-111015714D01*
X148642857Y-110872857D01*
X148571428Y-110587142D01*
X148571428Y-110230000D01*
X148642857Y-109944285D01*
X148714285Y-109801428D01*
X148785714Y-109730000D01*
X148928571Y-109658571D01*
X152357142Y-111158571D02*
X152357142Y-109658571D01*
X152357142Y-110230000D02*
X152500000Y-110158571D01*
X152785714Y-110158571D01*
X152928571Y-110230000D01*
X153000000Y-110301428D01*
X153071428Y-110444285D01*
X153071428Y-110872857D01*
X153000000Y-111015714D01*
X152928571Y-111087142D01*
X152785714Y-111158571D01*
X152500000Y-111158571D01*
X152357142Y-111087142D01*
X153928571Y-111158571D02*
X153785714Y-111087142D01*
X153714285Y-111015714D01*
X153642857Y-110872857D01*
X153642857Y-110444285D01*
X153714285Y-110301428D01*
X153785714Y-110230000D01*
X153928571Y-110158571D01*
X154142857Y-110158571D01*
X154285714Y-110230000D01*
X154357142Y-110301428D01*
X154428571Y-110444285D01*
X154428571Y-110872857D01*
X154357142Y-111015714D01*
X154285714Y-111087142D01*
X154142857Y-111158571D01*
X153928571Y-111158571D01*
X155714285Y-111158571D02*
X155714285Y-110372857D01*
X155642857Y-110230000D01*
X155500000Y-110158571D01*
X155214285Y-110158571D01*
X155071428Y-110230000D01*
X155714285Y-111087142D02*
X155571428Y-111158571D01*
X155214285Y-111158571D01*
X155071428Y-111087142D01*
X155000000Y-110944285D01*
X155000000Y-110801428D01*
X155071428Y-110658571D01*
X155214285Y-110587142D01*
X155571428Y-110587142D01*
X155714285Y-110515714D01*
X156428571Y-111158571D02*
X156428571Y-110158571D01*
X156428571Y-110444285D02*
X156500000Y-110301428D01*
X156571428Y-110230000D01*
X156714285Y-110158571D01*
X156857142Y-110158571D01*
X158000000Y-111158571D02*
X158000000Y-109658571D01*
X158000000Y-111087142D02*
X157857142Y-111158571D01*
X157571428Y-111158571D01*
X157428571Y-111087142D01*
X157357142Y-111015714D01*
X157285714Y-110872857D01*
X157285714Y-110444285D01*
X157357142Y-110301428D01*
X157428571Y-110230000D01*
X157571428Y-110158571D01*
X157857142Y-110158571D01*
X158000000Y-110230000D01*
X160500000Y-111158571D02*
X160500000Y-109658571D01*
X160500000Y-111087142D02*
X160357142Y-111158571D01*
X160071428Y-111158571D01*
X159928571Y-111087142D01*
X159857142Y-111015714D01*
X159785714Y-110872857D01*
X159785714Y-110444285D01*
X159857142Y-110301428D01*
X159928571Y-110230000D01*
X160071428Y-110158571D01*
X160357142Y-110158571D01*
X160500000Y-110230000D01*
X161857142Y-111158571D02*
X161857142Y-110372857D01*
X161785714Y-110230000D01*
X161642857Y-110158571D01*
X161357142Y-110158571D01*
X161214285Y-110230000D01*
X161857142Y-111087142D02*
X161714285Y-111158571D01*
X161357142Y-111158571D01*
X161214285Y-111087142D01*
X161142857Y-110944285D01*
X161142857Y-110801428D01*
X161214285Y-110658571D01*
X161357142Y-110587142D01*
X161714285Y-110587142D01*
X161857142Y-110515714D01*
X162357142Y-110158571D02*
X162928571Y-110158571D01*
X162571428Y-109658571D02*
X162571428Y-110944285D01*
X162642857Y-111087142D01*
X162785714Y-111158571D01*
X162928571Y-111158571D01*
X164000000Y-111087142D02*
X163857142Y-111158571D01*
X163571428Y-111158571D01*
X163428571Y-111087142D01*
X163357142Y-110944285D01*
X163357142Y-110372857D01*
X163428571Y-110230000D01*
X163571428Y-110158571D01*
X163857142Y-110158571D01*
X164000000Y-110230000D01*
X164071428Y-110372857D01*
X164071428Y-110515714D01*
X163357142Y-110658571D01*
X166142857Y-109658571D02*
X166285714Y-109658571D01*
X166428571Y-109730000D01*
X166500000Y-109801428D01*
X166571428Y-109944285D01*
X166642857Y-110230000D01*
X166642857Y-110587142D01*
X166571428Y-110872857D01*
X166500000Y-111015714D01*
X166428571Y-111087142D01*
X166285714Y-111158571D01*
X166142857Y-111158571D01*
X166000000Y-111087142D01*
X165928571Y-111015714D01*
X165857142Y-110872857D01*
X165785714Y-110587142D01*
X165785714Y-110230000D01*
X165857142Y-109944285D01*
X165928571Y-109801428D01*
X166000000Y-109730000D01*
X166142857Y-109658571D01*
X167928571Y-110158571D02*
X167928571Y-111158571D01*
X167571428Y-109587142D02*
X167214285Y-110658571D01*
X168142857Y-110658571D01*
X168714285Y-110587142D02*
X169857142Y-110587142D01*
X170857142Y-109658571D02*
X171000000Y-109658571D01*
X171142857Y-109730000D01*
X171214285Y-109801428D01*
X171285714Y-109944285D01*
X171357142Y-110230000D01*
X171357142Y-110587142D01*
X171285714Y-110872857D01*
X171214285Y-111015714D01*
X171142857Y-111087142D01*
X171000000Y-111158571D01*
X170857142Y-111158571D01*
X170714285Y-111087142D01*
X170642857Y-111015714D01*
X170571428Y-110872857D01*
X170500000Y-110587142D01*
X170500000Y-110230000D01*
X170571428Y-109944285D01*
X170642857Y-109801428D01*
X170714285Y-109730000D01*
X170857142Y-109658571D01*
X172214285Y-110301428D02*
X172071428Y-110230000D01*
X172000000Y-110158571D01*
X171928571Y-110015714D01*
X171928571Y-109944285D01*
X172000000Y-109801428D01*
X172071428Y-109730000D01*
X172214285Y-109658571D01*
X172500000Y-109658571D01*
X172642857Y-109730000D01*
X172714285Y-109801428D01*
X172785714Y-109944285D01*
X172785714Y-110015714D01*
X172714285Y-110158571D01*
X172642857Y-110230000D01*
X172500000Y-110301428D01*
X172214285Y-110301428D01*
X172071428Y-110372857D01*
X172000000Y-110444285D01*
X171928571Y-110587142D01*
X171928571Y-110872857D01*
X172000000Y-111015714D01*
X172071428Y-111087142D01*
X172214285Y-111158571D01*
X172500000Y-111158571D01*
X172642857Y-111087142D01*
X172714285Y-111015714D01*
X172785714Y-110872857D01*
X172785714Y-110587142D01*
X172714285Y-110444285D01*
X172642857Y-110372857D01*
X172500000Y-110301428D01*
X173428571Y-110587142D02*
X174571428Y-110587142D01*
X175214285Y-109801428D02*
X175285714Y-109730000D01*
X175428571Y-109658571D01*
X175785714Y-109658571D01*
X175928571Y-109730000D01*
X176000000Y-109801428D01*
X176071428Y-109944285D01*
X176071428Y-110087142D01*
X176000000Y-110301428D01*
X175142857Y-111158571D01*
X176071428Y-111158571D01*
X177000000Y-109658571D02*
X177142857Y-109658571D01*
X177285714Y-109730000D01*
X177357142Y-109801428D01*
X177428571Y-109944285D01*
X177500000Y-110230000D01*
X177500000Y-110587142D01*
X177428571Y-110872857D01*
X177357142Y-111015714D01*
X177285714Y-111087142D01*
X177142857Y-111158571D01*
X177000000Y-111158571D01*
X176857142Y-111087142D01*
X176785714Y-111015714D01*
X176714285Y-110872857D01*
X176642857Y-110587142D01*
X176642857Y-110230000D01*
X176714285Y-109944285D01*
X176785714Y-109801428D01*
X176857142Y-109730000D01*
X177000000Y-109658571D01*
X178928571Y-111158571D02*
X178071428Y-111158571D01*
X178500000Y-111158571D02*
X178500000Y-109658571D01*
X178357142Y-109872857D01*
X178214285Y-110015714D01*
X178071428Y-110087142D01*
X179642857Y-111158571D02*
X179928571Y-111158571D01*
X180071428Y-111087142D01*
X180142857Y-111015714D01*
X180285714Y-110801428D01*
X180357142Y-110515714D01*
X180357142Y-109944285D01*
X180285714Y-109801428D01*
X180214285Y-109730000D01*
X180071428Y-109658571D01*
X179785714Y-109658571D01*
X179642857Y-109730000D01*
X179571428Y-109801428D01*
X179500000Y-109944285D01*
X179500000Y-110301428D01*
X179571428Y-110444285D01*
X179642857Y-110515714D01*
X179785714Y-110587142D01*
X180071428Y-110587142D01*
X180214285Y-110515714D01*
X180285714Y-110444285D01*
X180357142Y-110301428D01*
X134107142Y-113708571D02*
X134107142Y-112208571D01*
X134464285Y-112208571D01*
X134678571Y-112280000D01*
X134821428Y-112422857D01*
X134892857Y-112565714D01*
X134964285Y-112851428D01*
X134964285Y-113065714D01*
X134892857Y-113351428D01*
X134821428Y-113494285D01*
X134678571Y-113637142D01*
X134464285Y-113708571D01*
X134107142Y-113708571D01*
X136178571Y-113637142D02*
X136035714Y-113708571D01*
X135750000Y-113708571D01*
X135607142Y-113637142D01*
X135535714Y-113494285D01*
X135535714Y-112922857D01*
X135607142Y-112780000D01*
X135750000Y-112708571D01*
X136035714Y-112708571D01*
X136178571Y-112780000D01*
X136250000Y-112922857D01*
X136250000Y-113065714D01*
X135535714Y-113208571D01*
X136821428Y-113637142D02*
X136964285Y-113708571D01*
X137250000Y-113708571D01*
X137392857Y-113637142D01*
X137464285Y-113494285D01*
X137464285Y-113422857D01*
X137392857Y-113280000D01*
X137250000Y-113208571D01*
X137035714Y-113208571D01*
X136892857Y-113137142D01*
X136821428Y-112994285D01*
X136821428Y-112922857D01*
X136892857Y-112780000D01*
X137035714Y-112708571D01*
X137250000Y-112708571D01*
X137392857Y-112780000D01*
X138107142Y-113708571D02*
X138107142Y-112708571D01*
X138107142Y-112208571D02*
X138035714Y-112280000D01*
X138107142Y-112351428D01*
X138178571Y-112280000D01*
X138107142Y-112208571D01*
X138107142Y-112351428D01*
X139464285Y-112708571D02*
X139464285Y-113922857D01*
X139392857Y-114065714D01*
X139321428Y-114137142D01*
X139178571Y-114208571D01*
X138964285Y-114208571D01*
X138821428Y-114137142D01*
X139464285Y-113637142D02*
X139321428Y-113708571D01*
X139035714Y-113708571D01*
X138892857Y-113637142D01*
X138821428Y-113565714D01*
X138750000Y-113422857D01*
X138750000Y-112994285D01*
X138821428Y-112851428D01*
X138892857Y-112780000D01*
X139035714Y-112708571D01*
X139321428Y-112708571D01*
X139464285Y-112780000D01*
X140178571Y-112708571D02*
X140178571Y-113708571D01*
X140178571Y-112851428D02*
X140250000Y-112780000D01*
X140392857Y-112708571D01*
X140607142Y-112708571D01*
X140750000Y-112780000D01*
X140821428Y-112922857D01*
X140821428Y-113708571D01*
X142107142Y-113637142D02*
X141964285Y-113708571D01*
X141678571Y-113708571D01*
X141535714Y-113637142D01*
X141464285Y-113494285D01*
X141464285Y-112922857D01*
X141535714Y-112780000D01*
X141678571Y-112708571D01*
X141964285Y-112708571D01*
X142107142Y-112780000D01*
X142178571Y-112922857D01*
X142178571Y-113065714D01*
X141464285Y-113208571D01*
X143464285Y-113708571D02*
X143464285Y-112208571D01*
X143464285Y-113637142D02*
X143321428Y-113708571D01*
X143035714Y-113708571D01*
X142892857Y-113637142D01*
X142821428Y-113565714D01*
X142750000Y-113422857D01*
X142750000Y-112994285D01*
X142821428Y-112851428D01*
X142892857Y-112780000D01*
X143035714Y-112708571D01*
X143321428Y-112708571D01*
X143464285Y-112780000D01*
X145321428Y-113708571D02*
X145321428Y-112708571D01*
X145321428Y-112208571D02*
X145250000Y-112280000D01*
X145321428Y-112351428D01*
X145392857Y-112280000D01*
X145321428Y-112208571D01*
X145321428Y-112351428D01*
X146035714Y-112708571D02*
X146035714Y-113708571D01*
X146035714Y-112851428D02*
X146107142Y-112780000D01*
X146250000Y-112708571D01*
X146464285Y-112708571D01*
X146607142Y-112780000D01*
X146678571Y-112922857D01*
X146678571Y-113708571D01*
X148535714Y-113708571D02*
X148535714Y-112208571D01*
X149107142Y-112208571D01*
X149250000Y-112280000D01*
X149321428Y-112351428D01*
X149392857Y-112494285D01*
X149392857Y-112708571D01*
X149321428Y-112851428D01*
X149250000Y-112922857D01*
X149107142Y-112994285D01*
X148535714Y-112994285D01*
X150250000Y-113708571D02*
X150107142Y-113637142D01*
X150035714Y-113494285D01*
X150035714Y-112208571D01*
X151464285Y-113708571D02*
X151464285Y-112922857D01*
X151392857Y-112780000D01*
X151250000Y-112708571D01*
X150964285Y-112708571D01*
X150821428Y-112780000D01*
X151464285Y-113637142D02*
X151321428Y-113708571D01*
X150964285Y-113708571D01*
X150821428Y-113637142D01*
X150750000Y-113494285D01*
X150750000Y-113351428D01*
X150821428Y-113208571D01*
X150964285Y-113137142D01*
X151321428Y-113137142D01*
X151464285Y-113065714D01*
X152035714Y-112708571D02*
X152392857Y-113708571D01*
X152750000Y-112708571D02*
X152392857Y-113708571D01*
X152250000Y-114065714D01*
X152178571Y-114137142D01*
X152035714Y-114208571D01*
X153964285Y-113708571D02*
X153964285Y-112922857D01*
X153892857Y-112780000D01*
X153750000Y-112708571D01*
X153464285Y-112708571D01*
X153321428Y-112780000D01*
X153964285Y-113637142D02*
X153821428Y-113708571D01*
X153464285Y-113708571D01*
X153321428Y-113637142D01*
X153250000Y-113494285D01*
X153250000Y-113351428D01*
X153321428Y-113208571D01*
X153464285Y-113137142D01*
X153821428Y-113137142D01*
X153964285Y-113065714D01*
X156464285Y-113708571D02*
X156464285Y-112208571D01*
X156464285Y-113637142D02*
X156321428Y-113708571D01*
X156035714Y-113708571D01*
X155892857Y-113637142D01*
X155821428Y-113565714D01*
X155750000Y-113422857D01*
X155750000Y-112994285D01*
X155821428Y-112851428D01*
X155892857Y-112780000D01*
X156035714Y-112708571D01*
X156321428Y-112708571D01*
X156464285Y-112780000D01*
X157750000Y-113637142D02*
X157607142Y-113708571D01*
X157321428Y-113708571D01*
X157178571Y-113637142D01*
X157107142Y-113494285D01*
X157107142Y-112922857D01*
X157178571Y-112780000D01*
X157321428Y-112708571D01*
X157607142Y-112708571D01*
X157750000Y-112780000D01*
X157821428Y-112922857D01*
X157821428Y-113065714D01*
X157107142Y-113208571D01*
X158678571Y-113708571D02*
X158535714Y-113637142D01*
X158464285Y-113494285D01*
X158464285Y-112208571D01*
X161250000Y-113565714D02*
X161178571Y-113637142D01*
X160964285Y-113708571D01*
X160821428Y-113708571D01*
X160607142Y-113637142D01*
X160464285Y-113494285D01*
X160392857Y-113351428D01*
X160321428Y-113065714D01*
X160321428Y-112851428D01*
X160392857Y-112565714D01*
X160464285Y-112422857D01*
X160607142Y-112280000D01*
X160821428Y-112208571D01*
X160964285Y-112208571D01*
X161178571Y-112280000D01*
X161250000Y-112351428D01*
X162535714Y-112708571D02*
X162535714Y-113708571D01*
X161892857Y-112708571D02*
X161892857Y-113494285D01*
X161964285Y-113637142D01*
X162107142Y-113708571D01*
X162321428Y-113708571D01*
X162464285Y-113637142D01*
X162535714Y-113565714D01*
X163250000Y-113708571D02*
X163250000Y-112708571D01*
X163250000Y-112994285D02*
X163321428Y-112851428D01*
X163392857Y-112780000D01*
X163535714Y-112708571D01*
X163678571Y-112708571D01*
X164821428Y-113708571D02*
X164821428Y-112922857D01*
X164750000Y-112780000D01*
X164607142Y-112708571D01*
X164321428Y-112708571D01*
X164178571Y-112780000D01*
X164821428Y-113637142D02*
X164678571Y-113708571D01*
X164321428Y-113708571D01*
X164178571Y-113637142D01*
X164107142Y-113494285D01*
X164107142Y-113351428D01*
X164178571Y-113208571D01*
X164321428Y-113137142D01*
X164678571Y-113137142D01*
X164821428Y-113065714D01*
X167035714Y-114208571D02*
X167035714Y-112065714D01*
X170035714Y-112280000D02*
X169892857Y-112208571D01*
X169678571Y-112208571D01*
X169464285Y-112280000D01*
X169321428Y-112422857D01*
X169250000Y-112565714D01*
X169178571Y-112851428D01*
X169178571Y-113065714D01*
X169250000Y-113351428D01*
X169321428Y-113494285D01*
X169464285Y-113637142D01*
X169678571Y-113708571D01*
X169821428Y-113708571D01*
X170035714Y-113637142D01*
X170107142Y-113565714D01*
X170107142Y-113065714D01*
X169821428Y-113065714D01*
X170750000Y-113708571D02*
X170750000Y-112708571D01*
X170750000Y-112994285D02*
X170821428Y-112851428D01*
X170892857Y-112780000D01*
X171035714Y-112708571D01*
X171178571Y-112708571D01*
X172321428Y-113708571D02*
X172321428Y-112922857D01*
X172250000Y-112780000D01*
X172107142Y-112708571D01*
X171821428Y-112708571D01*
X171678571Y-112780000D01*
X172321428Y-113637142D02*
X172178571Y-113708571D01*
X171821428Y-113708571D01*
X171678571Y-113637142D01*
X171607142Y-113494285D01*
X171607142Y-113351428D01*
X171678571Y-113208571D01*
X171821428Y-113137142D01*
X172178571Y-113137142D01*
X172321428Y-113065714D01*
X173035714Y-112708571D02*
X173035714Y-113708571D01*
X173035714Y-112851428D02*
X173107142Y-112780000D01*
X173250000Y-112708571D01*
X173464285Y-112708571D01*
X173607142Y-112780000D01*
X173678571Y-112922857D01*
X173678571Y-113708571D01*
X176392857Y-113565714D02*
X176321428Y-113637142D01*
X176107142Y-113708571D01*
X175964285Y-113708571D01*
X175750000Y-113637142D01*
X175607142Y-113494285D01*
X175535714Y-113351428D01*
X175464285Y-113065714D01*
X175464285Y-112851428D01*
X175535714Y-112565714D01*
X175607142Y-112422857D01*
X175750000Y-112280000D01*
X175964285Y-112208571D01*
X176107142Y-112208571D01*
X176321428Y-112280000D01*
X176392857Y-112351428D01*
X177678571Y-113708571D02*
X177678571Y-112922857D01*
X177607142Y-112780000D01*
X177464285Y-112708571D01*
X177178571Y-112708571D01*
X177035714Y-112780000D01*
X177678571Y-113637142D02*
X177535714Y-113708571D01*
X177178571Y-113708571D01*
X177035714Y-113637142D01*
X176964285Y-113494285D01*
X176964285Y-113351428D01*
X177035714Y-113208571D01*
X177178571Y-113137142D01*
X177535714Y-113137142D01*
X177678571Y-113065714D01*
X178392857Y-112708571D02*
X178392857Y-113708571D01*
X178392857Y-112851428D02*
X178464285Y-112780000D01*
X178607142Y-112708571D01*
X178821428Y-112708571D01*
X178964285Y-112780000D01*
X179035714Y-112922857D01*
X179035714Y-113708571D01*
X180392857Y-113708571D02*
X180392857Y-112922857D01*
X180321428Y-112780000D01*
X180178571Y-112708571D01*
X179892857Y-112708571D01*
X179750000Y-112780000D01*
X180392857Y-113637142D02*
X180250000Y-113708571D01*
X179892857Y-113708571D01*
X179750000Y-113637142D01*
X179678571Y-113494285D01*
X179678571Y-113351428D01*
X179750000Y-113208571D01*
X179892857Y-113137142D01*
X180250000Y-113137142D01*
X180392857Y-113065714D01*
X181107142Y-113708571D02*
X181107142Y-112708571D01*
X181107142Y-112994285D02*
X181178571Y-112851428D01*
X181250000Y-112780000D01*
X181392857Y-112708571D01*
X181535714Y-112708571D01*
X182035714Y-113708571D02*
X182035714Y-112708571D01*
X182035714Y-112208571D02*
X181964285Y-112280000D01*
X182035714Y-112351428D01*
X182107142Y-112280000D01*
X182035714Y-112208571D01*
X182035714Y-112351428D01*
X183392857Y-113708571D02*
X183392857Y-112922857D01*
X183321428Y-112780000D01*
X183178571Y-112708571D01*
X182892857Y-112708571D01*
X182750000Y-112780000D01*
X183392857Y-113637142D02*
X183250000Y-113708571D01*
X182892857Y-113708571D01*
X182750000Y-113637142D01*
X182678571Y-113494285D01*
X182678571Y-113351428D01*
X182750000Y-113208571D01*
X182892857Y-113137142D01*
X183250000Y-113137142D01*
X183392857Y-113065714D01*
X145642857Y-116258571D02*
X145642857Y-114758571D01*
X146285714Y-116258571D02*
X146285714Y-115472857D01*
X146214285Y-115330000D01*
X146071428Y-115258571D01*
X145857142Y-115258571D01*
X145714285Y-115330000D01*
X145642857Y-115401428D01*
X146785714Y-115258571D02*
X147357142Y-115258571D01*
X147000000Y-114758571D02*
X147000000Y-116044285D01*
X147071428Y-116187142D01*
X147214285Y-116258571D01*
X147357142Y-116258571D01*
X147642857Y-115258571D02*
X148214285Y-115258571D01*
X147857142Y-114758571D02*
X147857142Y-116044285D01*
X147928571Y-116187142D01*
X148071428Y-116258571D01*
X148214285Y-116258571D01*
X148714285Y-115258571D02*
X148714285Y-116758571D01*
X148714285Y-115330000D02*
X148857142Y-115258571D01*
X149142857Y-115258571D01*
X149285714Y-115330000D01*
X149357142Y-115401428D01*
X149428571Y-115544285D01*
X149428571Y-115972857D01*
X149357142Y-116115714D01*
X149285714Y-116187142D01*
X149142857Y-116258571D01*
X148857142Y-116258571D01*
X148714285Y-116187142D01*
X150071428Y-116115714D02*
X150142857Y-116187142D01*
X150071428Y-116258571D01*
X150000000Y-116187142D01*
X150071428Y-116115714D01*
X150071428Y-116258571D01*
X150071428Y-115330000D02*
X150142857Y-115401428D01*
X150071428Y-115472857D01*
X150000000Y-115401428D01*
X150071428Y-115330000D01*
X150071428Y-115472857D01*
X151857142Y-114687142D02*
X150571428Y-116615714D01*
X153428571Y-114687142D02*
X152142857Y-116615714D01*
X154571428Y-116258571D02*
X154571428Y-114758571D01*
X154571428Y-116187142D02*
X154428571Y-116258571D01*
X154142857Y-116258571D01*
X154000000Y-116187142D01*
X153928571Y-116115714D01*
X153857142Y-115972857D01*
X153857142Y-115544285D01*
X153928571Y-115401428D01*
X154000000Y-115330000D01*
X154142857Y-115258571D01*
X154428571Y-115258571D01*
X154571428Y-115330000D01*
X155285714Y-116258571D02*
X155285714Y-115258571D01*
X155285714Y-114758571D02*
X155214285Y-114830000D01*
X155285714Y-114901428D01*
X155357142Y-114830000D01*
X155285714Y-114758571D01*
X155285714Y-114901428D01*
X155857142Y-115258571D02*
X156214285Y-116258571D01*
X156571428Y-115258571D02*
X156214285Y-116258571D01*
X156071428Y-116615714D01*
X156000000Y-116687142D01*
X155857142Y-116758571D01*
X157142857Y-116115714D02*
X157214285Y-116187142D01*
X157142857Y-116258571D01*
X157071428Y-116187142D01*
X157142857Y-116115714D01*
X157142857Y-116258571D01*
X158500000Y-116258571D02*
X158500000Y-115472857D01*
X158428571Y-115330000D01*
X158285714Y-115258571D01*
X158000000Y-115258571D01*
X157857142Y-115330000D01*
X158500000Y-116187142D02*
X158357142Y-116258571D01*
X158000000Y-116258571D01*
X157857142Y-116187142D01*
X157785714Y-116044285D01*
X157785714Y-115901428D01*
X157857142Y-115758571D01*
X158000000Y-115687142D01*
X158357142Y-115687142D01*
X158500000Y-115615714D01*
X159857142Y-116187142D02*
X159714285Y-116258571D01*
X159428571Y-116258571D01*
X159285714Y-116187142D01*
X159214285Y-116115714D01*
X159142857Y-115972857D01*
X159142857Y-115544285D01*
X159214285Y-115401428D01*
X159285714Y-115330000D01*
X159428571Y-115258571D01*
X159714285Y-115258571D01*
X159857142Y-115330000D01*
X160714285Y-116258571D02*
X160571428Y-116187142D01*
X160500000Y-116115714D01*
X160428571Y-115972857D01*
X160428571Y-115544285D01*
X160500000Y-115401428D01*
X160571428Y-115330000D01*
X160714285Y-115258571D01*
X160928571Y-115258571D01*
X161071428Y-115330000D01*
X161142857Y-115401428D01*
X161214285Y-115544285D01*
X161214285Y-115972857D01*
X161142857Y-116115714D01*
X161071428Y-116187142D01*
X160928571Y-116258571D01*
X160714285Y-116258571D01*
X161857142Y-116258571D02*
X161857142Y-115258571D01*
X161857142Y-115544285D02*
X161928571Y-115401428D01*
X162000000Y-115330000D01*
X162142857Y-115258571D01*
X162285714Y-115258571D01*
X162785714Y-115258571D02*
X162785714Y-116258571D01*
X162785714Y-115401428D02*
X162857142Y-115330000D01*
X163000000Y-115258571D01*
X163214285Y-115258571D01*
X163357142Y-115330000D01*
X163428571Y-115472857D01*
X163428571Y-116258571D01*
X164785714Y-116258571D02*
X164785714Y-115472857D01*
X164714285Y-115330000D01*
X164571428Y-115258571D01*
X164285714Y-115258571D01*
X164142857Y-115330000D01*
X164785714Y-116187142D02*
X164642857Y-116258571D01*
X164285714Y-116258571D01*
X164142857Y-116187142D01*
X164071428Y-116044285D01*
X164071428Y-115901428D01*
X164142857Y-115758571D01*
X164285714Y-115687142D01*
X164642857Y-115687142D01*
X164785714Y-115615714D01*
X165285714Y-115258571D02*
X165857142Y-115258571D01*
X165500000Y-114758571D02*
X165500000Y-116044285D01*
X165571428Y-116187142D01*
X165714285Y-116258571D01*
X165857142Y-116258571D01*
X166571428Y-116258571D02*
X166428571Y-116187142D01*
X166357142Y-116115714D01*
X166285714Y-115972857D01*
X166285714Y-115544285D01*
X166357142Y-115401428D01*
X166428571Y-115330000D01*
X166571428Y-115258571D01*
X166785714Y-115258571D01*
X166928571Y-115330000D01*
X167000000Y-115401428D01*
X167071428Y-115544285D01*
X167071428Y-115972857D01*
X167000000Y-116115714D01*
X166928571Y-116187142D01*
X166785714Y-116258571D01*
X166571428Y-116258571D01*
X167714285Y-116258571D02*
X167714285Y-115258571D01*
X167714285Y-115401428D02*
X167785714Y-115330000D01*
X167928571Y-115258571D01*
X168142857Y-115258571D01*
X168285714Y-115330000D01*
X168357142Y-115472857D01*
X168357142Y-116258571D01*
X168357142Y-115472857D02*
X168428571Y-115330000D01*
X168571428Y-115258571D01*
X168785714Y-115258571D01*
X168928571Y-115330000D01*
X169000000Y-115472857D01*
X169000000Y-116258571D01*
X169714285Y-116115714D02*
X169785714Y-116187142D01*
X169714285Y-116258571D01*
X169642857Y-116187142D01*
X169714285Y-116115714D01*
X169714285Y-116258571D01*
X170428571Y-115258571D02*
X170428571Y-116258571D01*
X170428571Y-115401428D02*
X170500000Y-115330000D01*
X170642857Y-115258571D01*
X170857142Y-115258571D01*
X171000000Y-115330000D01*
X171071428Y-115472857D01*
X171071428Y-116258571D01*
X172000000Y-116258571D02*
X171857142Y-116187142D01*
X171785714Y-116044285D01*
X171785714Y-114758571D01*
X147214285Y-118808571D02*
X147214285Y-117808571D01*
X147214285Y-118094285D02*
X147285714Y-117951428D01*
X147357142Y-117880000D01*
X147500000Y-117808571D01*
X147642857Y-117808571D01*
X148357142Y-118808571D02*
X148214285Y-118737142D01*
X148142857Y-118665714D01*
X148071428Y-118522857D01*
X148071428Y-118094285D01*
X148142857Y-117951428D01*
X148214285Y-117880000D01*
X148357142Y-117808571D01*
X148571428Y-117808571D01*
X148714285Y-117880000D01*
X148785714Y-117951428D01*
X148857142Y-118094285D01*
X148857142Y-118522857D01*
X148785714Y-118665714D01*
X148714285Y-118737142D01*
X148571428Y-118808571D01*
X148357142Y-118808571D01*
X149714285Y-118808571D02*
X149571428Y-118737142D01*
X149500000Y-118594285D01*
X149500000Y-117308571D01*
X150928571Y-118808571D02*
X150928571Y-118022857D01*
X150857142Y-117880000D01*
X150714285Y-117808571D01*
X150428571Y-117808571D01*
X150285714Y-117880000D01*
X150928571Y-118737142D02*
X150785714Y-118808571D01*
X150428571Y-118808571D01*
X150285714Y-118737142D01*
X150214285Y-118594285D01*
X150214285Y-118451428D01*
X150285714Y-118308571D01*
X150428571Y-118237142D01*
X150785714Y-118237142D01*
X150928571Y-118165714D01*
X151642857Y-117808571D02*
X151642857Y-118808571D01*
X151642857Y-117951428D02*
X151714285Y-117880000D01*
X151857142Y-117808571D01*
X152071428Y-117808571D01*
X152214285Y-117880000D01*
X152285714Y-118022857D01*
X152285714Y-118808571D01*
X153642857Y-118808571D02*
X153642857Y-117308571D01*
X153642857Y-118737142D02*
X153500000Y-118808571D01*
X153214285Y-118808571D01*
X153071428Y-118737142D01*
X153000000Y-118665714D01*
X152928571Y-118522857D01*
X152928571Y-118094285D01*
X153000000Y-117951428D01*
X153071428Y-117880000D01*
X153214285Y-117808571D01*
X153500000Y-117808571D01*
X153642857Y-117880000D01*
X155285714Y-118094285D02*
X155214285Y-118022857D01*
X155071428Y-117951428D01*
X154928571Y-117951428D01*
X154785714Y-118022857D01*
X154714285Y-118094285D01*
X154642857Y-118237142D01*
X154642857Y-118380000D01*
X154714285Y-118522857D01*
X154785714Y-118594285D01*
X154928571Y-118665714D01*
X155071428Y-118665714D01*
X155214285Y-118594285D01*
X155285714Y-118522857D01*
X155285714Y-117951428D02*
X155285714Y-118522857D01*
X155357142Y-118594285D01*
X155428571Y-118594285D01*
X155571428Y-118522857D01*
X155642857Y-118380000D01*
X155642857Y-118022857D01*
X155500000Y-117808571D01*
X155285714Y-117665714D01*
X155000000Y-117594285D01*
X154714285Y-117665714D01*
X154500000Y-117808571D01*
X154357142Y-118022857D01*
X154285714Y-118308571D01*
X154357142Y-118594285D01*
X154500000Y-118808571D01*
X154714285Y-118951428D01*
X155000000Y-119022857D01*
X155285714Y-118951428D01*
X155500000Y-118808571D01*
X156928571Y-118808571D02*
X156928571Y-118022857D01*
X156857142Y-117880000D01*
X156714285Y-117808571D01*
X156428571Y-117808571D01*
X156285714Y-117880000D01*
X156928571Y-118737142D02*
X156785714Y-118808571D01*
X156428571Y-118808571D01*
X156285714Y-118737142D01*
X156214285Y-118594285D01*
X156214285Y-118451428D01*
X156285714Y-118308571D01*
X156428571Y-118237142D01*
X156785714Y-118237142D01*
X156928571Y-118165714D01*
X158285714Y-118737142D02*
X158142857Y-118808571D01*
X157857142Y-118808571D01*
X157714285Y-118737142D01*
X157642857Y-118665714D01*
X157571428Y-118522857D01*
X157571428Y-118094285D01*
X157642857Y-117951428D01*
X157714285Y-117880000D01*
X157857142Y-117808571D01*
X158142857Y-117808571D01*
X158285714Y-117880000D01*
X159142857Y-118808571D02*
X159000000Y-118737142D01*
X158928571Y-118665714D01*
X158857142Y-118522857D01*
X158857142Y-118094285D01*
X158928571Y-117951428D01*
X159000000Y-117880000D01*
X159142857Y-117808571D01*
X159357142Y-117808571D01*
X159500000Y-117880000D01*
X159571428Y-117951428D01*
X159642857Y-118094285D01*
X159642857Y-118522857D01*
X159571428Y-118665714D01*
X159500000Y-118737142D01*
X159357142Y-118808571D01*
X159142857Y-118808571D01*
X160285714Y-118808571D02*
X160285714Y-117808571D01*
X160285714Y-118094285D02*
X160357142Y-117951428D01*
X160428571Y-117880000D01*
X160571428Y-117808571D01*
X160714285Y-117808571D01*
X161214285Y-117808571D02*
X161214285Y-118808571D01*
X161214285Y-117951428D02*
X161285714Y-117880000D01*
X161428571Y-117808571D01*
X161642857Y-117808571D01*
X161785714Y-117880000D01*
X161857142Y-118022857D01*
X161857142Y-118808571D01*
X163214285Y-118808571D02*
X163214285Y-118022857D01*
X163142857Y-117880000D01*
X163000000Y-117808571D01*
X162714285Y-117808571D01*
X162571428Y-117880000D01*
X163214285Y-118737142D02*
X163071428Y-118808571D01*
X162714285Y-118808571D01*
X162571428Y-118737142D01*
X162500000Y-118594285D01*
X162500000Y-118451428D01*
X162571428Y-118308571D01*
X162714285Y-118237142D01*
X163071428Y-118237142D01*
X163214285Y-118165714D01*
X163714285Y-117808571D02*
X164285714Y-117808571D01*
X163928571Y-117308571D02*
X163928571Y-118594285D01*
X164000000Y-118737142D01*
X164142857Y-118808571D01*
X164285714Y-118808571D01*
X165000000Y-118808571D02*
X164857142Y-118737142D01*
X164785714Y-118665714D01*
X164714285Y-118522857D01*
X164714285Y-118094285D01*
X164785714Y-117951428D01*
X164857142Y-117880000D01*
X165000000Y-117808571D01*
X165214285Y-117808571D01*
X165357142Y-117880000D01*
X165428571Y-117951428D01*
X165500000Y-118094285D01*
X165500000Y-118522857D01*
X165428571Y-118665714D01*
X165357142Y-118737142D01*
X165214285Y-118808571D01*
X165000000Y-118808571D01*
X166142857Y-118808571D02*
X166142857Y-117808571D01*
X166142857Y-117951428D02*
X166214285Y-117880000D01*
X166357142Y-117808571D01*
X166571428Y-117808571D01*
X166714285Y-117880000D01*
X166785714Y-118022857D01*
X166785714Y-118808571D01*
X166785714Y-118022857D02*
X166857142Y-117880000D01*
X167000000Y-117808571D01*
X167214285Y-117808571D01*
X167357142Y-117880000D01*
X167428571Y-118022857D01*
X167428571Y-118808571D01*
X168142857Y-118665714D02*
X168214285Y-118737142D01*
X168142857Y-118808571D01*
X168071428Y-118737142D01*
X168142857Y-118665714D01*
X168142857Y-118808571D01*
X168857142Y-117808571D02*
X168857142Y-118808571D01*
X168857142Y-117951428D02*
X168928571Y-117880000D01*
X169071428Y-117808571D01*
X169285714Y-117808571D01*
X169428571Y-117880000D01*
X169500000Y-118022857D01*
X169500000Y-118808571D01*
X170428571Y-118808571D02*
X170285714Y-118737142D01*
X170214285Y-118594285D01*
X170214285Y-117308571D01*
D11*
X74146190Y-95805714D02*
X70812857Y-95805714D01*
X70812857Y-101043809D02*
X70812857Y-91043809D01*
X75574761Y-91043809D01*
X79384285Y-101043809D02*
X79384285Y-91043809D01*
X83193809Y-91043809D01*
X84146190Y-91520000D01*
X84622380Y-91996190D01*
X85098571Y-92948571D01*
X85098571Y-94377142D01*
X84622380Y-95329523D01*
X84146190Y-95805714D01*
X83193809Y-96281904D01*
X79384285Y-96281904D01*
X94622380Y-91520000D02*
X93670000Y-91043809D01*
X92241428Y-91043809D01*
X90812857Y-91520000D01*
X89860476Y-92472380D01*
X89384285Y-93424761D01*
X88908095Y-95329523D01*
X88908095Y-96758095D01*
X89384285Y-98662857D01*
X89860476Y-99615238D01*
X90812857Y-100567619D01*
X92241428Y-101043809D01*
X93193809Y-101043809D01*
X94622380Y-100567619D01*
X95098571Y-100091428D01*
X95098571Y-96758095D01*
X93193809Y-96758095D01*
X98908095Y-98186666D02*
X103670000Y-98186666D01*
X97955714Y-101043809D02*
X101289047Y-91043809D01*
X104622380Y-101043809D01*
X106527142Y-94377142D02*
X110336666Y-94377142D01*
X107955714Y-91043809D02*
X107955714Y-99615238D01*
X108431904Y-100567619D01*
X109384285Y-101043809D01*
X110336666Y-101043809D01*
X115098571Y-101043809D02*
X114146190Y-100567619D01*
X113670000Y-100091428D01*
X113193809Y-99139047D01*
X113193809Y-96281904D01*
X113670000Y-95329523D01*
X114146190Y-94853333D01*
X115098571Y-94377142D01*
X116527142Y-94377142D01*
X117479523Y-94853333D01*
X117955714Y-95329523D01*
X118431904Y-96281904D01*
X118431904Y-99139047D01*
X117955714Y-100091428D01*
X117479523Y-100567619D01*
X116527142Y-101043809D01*
X115098571Y-101043809D01*
X122717619Y-101043809D02*
X122717619Y-94377142D01*
X122717619Y-95329523D02*
X123193809Y-94853333D01*
X124146190Y-94377142D01*
X125574761Y-94377142D01*
X126527142Y-94853333D01*
X127003333Y-95805714D01*
X127003333Y-101043809D01*
X127003333Y-95805714D02*
X127479523Y-94853333D01*
X128431904Y-94377142D01*
X129860476Y-94377142D01*
X130812857Y-94853333D01*
X131289047Y-95805714D01*
X131289047Y-101043809D01*
X143670000Y-101043809D02*
X143670000Y-91043809D01*
X155574761Y-90567619D02*
X147003333Y-103424761D01*
X160812857Y-91043809D02*
X162717619Y-91043809D01*
X163670000Y-91520000D01*
X164622380Y-92472380D01*
X165098571Y-94377142D01*
X165098571Y-97710476D01*
X164622380Y-99615238D01*
X163670000Y-100567619D01*
X162717619Y-101043809D01*
X160812857Y-101043809D01*
X159860476Y-100567619D01*
X158908095Y-99615238D01*
X158431904Y-97710476D01*
X158431904Y-94377142D01*
X158908095Y-92472380D01*
X159860476Y-91520000D01*
X160812857Y-91043809D01*
X177003333Y-95805714D02*
X180336666Y-95805714D01*
X181765238Y-101043809D02*
X177003333Y-101043809D01*
X177003333Y-91043809D01*
X181765238Y-91043809D01*
X185098571Y-101043809D02*
X190336666Y-94377142D01*
X185098571Y-94377142D02*
X190336666Y-101043809D01*
X192717619Y-94377142D02*
X196527142Y-94377142D01*
X194146190Y-91043809D02*
X194146190Y-99615238D01*
X194622380Y-100567619D01*
X195574761Y-101043809D01*
X196527142Y-101043809D01*
X203669999Y-100567619D02*
X202717619Y-101043809D01*
X200812857Y-101043809D01*
X199860476Y-100567619D01*
X199384285Y-99615238D01*
X199384285Y-95805714D01*
X199860476Y-94853333D01*
X200812857Y-94377142D01*
X202717619Y-94377142D01*
X203669999Y-94853333D01*
X204146190Y-95805714D01*
X204146190Y-96758095D01*
X199384285Y-97710476D01*
X208431904Y-94377142D02*
X208431904Y-101043809D01*
X208431904Y-95329523D02*
X208908095Y-94853333D01*
X209860476Y-94377142D01*
X211289047Y-94377142D01*
X212241428Y-94853333D01*
X212717619Y-95805714D01*
X212717619Y-101043809D01*
X221765238Y-101043809D02*
X221765238Y-91043809D01*
X221765238Y-100567619D02*
X220812857Y-101043809D01*
X218908095Y-101043809D01*
X217955714Y-100567619D01*
X217479523Y-100091428D01*
X217003333Y-99139047D01*
X217003333Y-96281904D01*
X217479523Y-95329523D01*
X217955714Y-94853333D01*
X218908095Y-94377142D01*
X220812857Y-94377142D01*
X221765238Y-94853333D01*
X230336666Y-100567619D02*
X229384285Y-101043809D01*
X227479523Y-101043809D01*
X226527142Y-100567619D01*
X226050952Y-99615238D01*
X226050952Y-95805714D01*
X226527142Y-94853333D01*
X227479523Y-94377142D01*
X229384285Y-94377142D01*
X230336666Y-94853333D01*
X230812857Y-95805714D01*
X230812857Y-96758095D01*
X226050952Y-97710476D01*
X235098571Y-101043809D02*
X235098571Y-94377142D01*
X235098571Y-96281904D02*
X235574761Y-95329523D01*
X236050952Y-94853333D01*
X237003333Y-94377142D01*
X237955714Y-94377142D01*
D10*
X109893571Y-62022857D02*
X109893571Y-62880000D01*
X109893571Y-62451428D02*
X108393571Y-62451428D01*
X108607857Y-62594285D01*
X108750714Y-62737142D01*
X108822142Y-62880000D01*
X109322142Y-61380000D02*
X109322142Y-60237142D01*
X108536428Y-59594285D02*
X108465000Y-59522857D01*
X108393571Y-59380000D01*
X108393571Y-59022857D01*
X108465000Y-58880000D01*
X108536428Y-58808571D01*
X108679285Y-58737142D01*
X108822142Y-58737142D01*
X109036428Y-58808571D01*
X109893571Y-59665714D01*
X109893571Y-58737142D01*
X109107857Y-56951428D02*
X109107857Y-55808571D01*
X109536428Y-55808571D02*
X109536428Y-56951428D01*
X109107857Y-53451428D02*
X109179285Y-53237142D01*
X109250714Y-53165714D01*
X109393571Y-53094285D01*
X109607857Y-53094285D01*
X109750714Y-53165714D01*
X109822142Y-53237142D01*
X109893571Y-53380000D01*
X109893571Y-53951428D01*
X108393571Y-53951428D01*
X108393571Y-53451428D01*
X108465000Y-53308571D01*
X108536428Y-53237142D01*
X108679285Y-53165714D01*
X108822142Y-53165714D01*
X108965000Y-53237142D01*
X109036428Y-53308571D01*
X109107857Y-53451428D01*
X109107857Y-53951428D01*
X109893571Y-51737142D02*
X109893571Y-52451428D01*
X108393571Y-52451428D01*
X109893571Y-51237142D02*
X108393571Y-51237142D01*
X109893571Y-50380000D02*
X109036428Y-51022857D01*
X108393571Y-50380000D02*
X109250714Y-51237142D01*
X109107857Y-49237142D02*
X109179285Y-49022857D01*
X109250714Y-48951428D01*
X109393571Y-48880000D01*
X109607857Y-48880000D01*
X109750714Y-48951428D01*
X109822142Y-49022857D01*
X109893571Y-49165714D01*
X109893571Y-49737142D01*
X108393571Y-49737142D01*
X108393571Y-49237142D01*
X108465000Y-49094285D01*
X108536428Y-49022857D01*
X108679285Y-48951428D01*
X108822142Y-48951428D01*
X108965000Y-49022857D01*
X109036428Y-49094285D01*
X109107857Y-49237142D01*
X109107857Y-49737142D01*
X111086428Y-62844285D02*
X111015000Y-62772857D01*
X110943571Y-62630000D01*
X110943571Y-62272857D01*
X111015000Y-62130000D01*
X111086428Y-62058571D01*
X111229285Y-61987142D01*
X111372142Y-61987142D01*
X111586428Y-62058571D01*
X112443571Y-62915714D01*
X112443571Y-61987142D01*
X111872142Y-61344285D02*
X111872142Y-60201428D01*
X110943571Y-59630000D02*
X110943571Y-58701428D01*
X111515000Y-59201428D01*
X111515000Y-58987142D01*
X111586428Y-58844285D01*
X111657857Y-58772857D01*
X111800714Y-58701428D01*
X112157857Y-58701428D01*
X112300714Y-58772857D01*
X112372142Y-58844285D01*
X112443571Y-58987142D01*
X112443571Y-59415714D01*
X112372142Y-59558571D01*
X112300714Y-59630000D01*
X111657857Y-56915714D02*
X111657857Y-55772857D01*
X112086428Y-55772857D02*
X112086428Y-56915714D01*
X111657857Y-53415714D02*
X111729285Y-53201428D01*
X111800714Y-53130000D01*
X111943571Y-53058571D01*
X112157857Y-53058571D01*
X112300714Y-53130000D01*
X112372142Y-53201428D01*
X112443571Y-53344285D01*
X112443571Y-53915714D01*
X110943571Y-53915714D01*
X110943571Y-53415714D01*
X111015000Y-53272857D01*
X111086428Y-53201428D01*
X111229285Y-53130000D01*
X111372142Y-53130000D01*
X111515000Y-53201428D01*
X111586428Y-53272857D01*
X111657857Y-53415714D01*
X111657857Y-53915714D01*
X112443571Y-51701428D02*
X112443571Y-52415714D01*
X110943571Y-52415714D01*
X112443571Y-51201428D02*
X110943571Y-51201428D01*
X112443571Y-50344285D02*
X111586428Y-50987142D01*
X110943571Y-50344285D02*
X111800714Y-51201428D01*
X110943571Y-49415714D02*
X110943571Y-49272857D01*
X111015000Y-49130000D01*
X111086428Y-49058571D01*
X111229285Y-48987142D01*
X111515000Y-48915714D01*
X111872142Y-48915714D01*
X112157857Y-48987142D01*
X112300714Y-49058571D01*
X112372142Y-49130000D01*
X112443571Y-49272857D01*
X112443571Y-49415714D01*
X112372142Y-49558571D01*
X112300714Y-49630000D01*
X112157857Y-49701428D01*
X111872142Y-49772857D01*
X111515000Y-49772857D01*
X111229285Y-49701428D01*
X111086428Y-49630000D01*
X111015000Y-49558571D01*
X110943571Y-49415714D01*
X239208571Y-120605714D02*
X240422857Y-120605714D01*
X240565714Y-120534285D01*
X240637142Y-120462857D01*
X240708571Y-120320000D01*
X240708571Y-120034285D01*
X240637142Y-119891428D01*
X240565714Y-119820000D01*
X240422857Y-119748571D01*
X239208571Y-119748571D01*
X240637142Y-119105714D02*
X240708571Y-118962857D01*
X240708571Y-118677142D01*
X240637142Y-118534285D01*
X240494285Y-118462857D01*
X240422857Y-118462857D01*
X240280000Y-118534285D01*
X240208571Y-118677142D01*
X240208571Y-118891428D01*
X240137142Y-119034285D01*
X239994285Y-119105714D01*
X239922857Y-119105714D01*
X239780000Y-119034285D01*
X239708571Y-118891428D01*
X239708571Y-118677142D01*
X239780000Y-118534285D01*
X240637142Y-117248571D02*
X240708571Y-117391428D01*
X240708571Y-117677142D01*
X240637142Y-117820000D01*
X240494285Y-117891428D01*
X239922857Y-117891428D01*
X239780000Y-117820000D01*
X239708571Y-117677142D01*
X239708571Y-117391428D01*
X239780000Y-117248571D01*
X239922857Y-117177142D01*
X240065714Y-117177142D01*
X240208571Y-117891428D01*
X240708571Y-116534285D02*
X239708571Y-116534285D01*
X239994285Y-116534285D02*
X239851428Y-116462857D01*
X239780000Y-116391428D01*
X239708571Y-116248571D01*
X239708571Y-116105714D01*
X240708571Y-114462857D02*
X239208571Y-114462857D01*
X239208571Y-113891428D01*
X239280000Y-113748571D01*
X239351428Y-113677142D01*
X239494285Y-113605714D01*
X239708571Y-113605714D01*
X239851428Y-113677142D01*
X239922857Y-113748571D01*
X239994285Y-113891428D01*
X239994285Y-114462857D01*
X240708571Y-112748571D02*
X240637142Y-112891428D01*
X240565714Y-112962857D01*
X240422857Y-113034285D01*
X239994285Y-113034285D01*
X239851428Y-112962857D01*
X239780000Y-112891428D01*
X239708571Y-112748571D01*
X239708571Y-112534285D01*
X239780000Y-112391428D01*
X239851428Y-112320000D01*
X239994285Y-112248571D01*
X240422857Y-112248571D01*
X240565714Y-112320000D01*
X240637142Y-112391428D01*
X240708571Y-112534285D01*
X240708571Y-112748571D01*
X240708571Y-111605714D02*
X239708571Y-111605714D01*
X239994285Y-111605714D02*
X239851428Y-111534285D01*
X239780000Y-111462857D01*
X239708571Y-111320000D01*
X239708571Y-111177142D01*
X239708571Y-110891428D02*
X239708571Y-110320000D01*
X239208571Y-110677142D02*
X240494285Y-110677142D01*
X240637142Y-110605714D01*
X240708571Y-110462857D01*
X240708571Y-110320000D01*
X197255714Y-130218571D02*
X196398571Y-130218571D01*
X196827142Y-130218571D02*
X196827142Y-128718571D01*
X196684285Y-128932857D01*
X196541428Y-129075714D01*
X196398571Y-129147142D01*
X199041428Y-130218571D02*
X199041428Y-128718571D01*
X199541428Y-129790000D01*
X200041428Y-128718571D01*
X200041428Y-130218571D01*
X200755714Y-130218571D02*
X200755714Y-128718571D01*
X200755714Y-129432857D02*
X201612857Y-129432857D01*
X201612857Y-130218571D02*
X201612857Y-128718571D01*
X202184285Y-129218571D02*
X202970000Y-129218571D01*
X202184285Y-130218571D01*
X202970000Y-130218571D01*
X204684285Y-130218571D02*
X204684285Y-128718571D01*
X204684285Y-129290000D02*
X204827142Y-129218571D01*
X205112857Y-129218571D01*
X205255714Y-129290000D01*
X205327142Y-129361428D01*
X205398571Y-129504285D01*
X205398571Y-129932857D01*
X205327142Y-130075714D01*
X205255714Y-130147142D01*
X205112857Y-130218571D01*
X204827142Y-130218571D01*
X204684285Y-130147142D01*
X206684285Y-129218571D02*
X206684285Y-130218571D01*
X206041428Y-129218571D02*
X206041428Y-130004285D01*
X206112857Y-130147142D01*
X206255714Y-130218571D01*
X206470000Y-130218571D01*
X206612857Y-130147142D01*
X206684285Y-130075714D01*
X207327142Y-130147142D02*
X207470000Y-130218571D01*
X207755714Y-130218571D01*
X207898571Y-130147142D01*
X207970000Y-130004285D01*
X207970000Y-129932857D01*
X207898571Y-129790000D01*
X207755714Y-129718571D01*
X207541428Y-129718571D01*
X207398571Y-129647142D01*
X207327142Y-129504285D01*
X207327142Y-129432857D01*
X207398571Y-129290000D01*
X207541428Y-129218571D01*
X207755714Y-129218571D01*
X207898571Y-129290000D01*
X210184285Y-130790000D02*
X210112857Y-130718571D01*
X209970000Y-130504285D01*
X209898571Y-130361428D01*
X209827142Y-130147142D01*
X209755714Y-129790000D01*
X209755714Y-129504285D01*
X209827142Y-129147142D01*
X209898571Y-128932857D01*
X209970000Y-128790000D01*
X210112857Y-128575714D01*
X210184285Y-128504285D01*
X211541428Y-130218571D02*
X210684285Y-130218571D01*
X211112857Y-130218571D02*
X211112857Y-128718571D01*
X210970000Y-128932857D01*
X210827142Y-129075714D01*
X210684285Y-129147142D01*
X212041428Y-130790000D02*
X212112857Y-130718571D01*
X212255714Y-130504285D01*
X212327142Y-130361428D01*
X212398571Y-130147142D01*
X212470000Y-129790000D01*
X212470000Y-129504285D01*
X212398571Y-129147142D01*
X212327142Y-128932857D01*
X212255714Y-128790000D01*
X212112857Y-128575714D01*
X212041428Y-128504285D01*
X109625714Y-130218571D02*
X108768571Y-130218571D01*
X109197142Y-130218571D02*
X109197142Y-128718571D01*
X109054285Y-128932857D01*
X108911428Y-129075714D01*
X108768571Y-129147142D01*
X111411428Y-130218571D02*
X111411428Y-128718571D01*
X111911428Y-129790000D01*
X112411428Y-128718571D01*
X112411428Y-130218571D01*
X113125714Y-130218571D02*
X113125714Y-128718571D01*
X113125714Y-129432857D02*
X113982857Y-129432857D01*
X113982857Y-130218571D02*
X113982857Y-128718571D01*
X114554285Y-129218571D02*
X115340000Y-129218571D01*
X114554285Y-130218571D01*
X115340000Y-130218571D01*
X117054285Y-130218571D02*
X117054285Y-128718571D01*
X117054285Y-129290000D02*
X117197142Y-129218571D01*
X117482857Y-129218571D01*
X117625714Y-129290000D01*
X117697142Y-129361428D01*
X117768571Y-129504285D01*
X117768571Y-129932857D01*
X117697142Y-130075714D01*
X117625714Y-130147142D01*
X117482857Y-130218571D01*
X117197142Y-130218571D01*
X117054285Y-130147142D01*
X119054285Y-129218571D02*
X119054285Y-130218571D01*
X118411428Y-129218571D02*
X118411428Y-130004285D01*
X118482857Y-130147142D01*
X118625714Y-130218571D01*
X118840000Y-130218571D01*
X118982857Y-130147142D01*
X119054285Y-130075714D01*
X119697142Y-130147142D02*
X119840000Y-130218571D01*
X120125714Y-130218571D01*
X120268571Y-130147142D01*
X120340000Y-130004285D01*
X120340000Y-129932857D01*
X120268571Y-129790000D01*
X120125714Y-129718571D01*
X119911428Y-129718571D01*
X119768571Y-129647142D01*
X119697142Y-129504285D01*
X119697142Y-129432857D01*
X119768571Y-129290000D01*
X119911428Y-129218571D01*
X120125714Y-129218571D01*
X120268571Y-129290000D01*
X122554285Y-130790000D02*
X122482857Y-130718571D01*
X122340000Y-130504285D01*
X122268571Y-130361428D01*
X122197142Y-130147142D01*
X122125714Y-129790000D01*
X122125714Y-129504285D01*
X122197142Y-129147142D01*
X122268571Y-128932857D01*
X122340000Y-128790000D01*
X122482857Y-128575714D01*
X122554285Y-128504285D01*
X123054285Y-128861428D02*
X123125714Y-128790000D01*
X123268571Y-128718571D01*
X123625714Y-128718571D01*
X123768571Y-128790000D01*
X123840000Y-128861428D01*
X123911428Y-129004285D01*
X123911428Y-129147142D01*
X123840000Y-129361428D01*
X122982857Y-130218571D01*
X123911428Y-130218571D01*
X124411428Y-130790000D02*
X124482857Y-130718571D01*
X124625714Y-130504285D01*
X124697142Y-130361428D01*
X124768571Y-130147142D01*
X124840000Y-129790000D01*
X124840000Y-129504285D01*
X124768571Y-129147142D01*
X124697142Y-128932857D01*
X124625714Y-128790000D01*
X124482857Y-128575714D01*
X124411428Y-128504285D01*
X235618571Y-86851428D02*
X235618571Y-87708571D01*
X235618571Y-87280000D02*
X234118571Y-87280000D01*
X234332857Y-87422857D01*
X234475714Y-87565714D01*
X234547142Y-87708571D01*
X235047142Y-86208571D02*
X235047142Y-85065714D01*
X234261428Y-84422857D02*
X234190000Y-84351428D01*
X234118571Y-84208571D01*
X234118571Y-83851428D01*
X234190000Y-83708571D01*
X234261428Y-83637142D01*
X234404285Y-83565714D01*
X234547142Y-83565714D01*
X234761428Y-83637142D01*
X235618571Y-84494285D01*
X235618571Y-83565714D01*
X234832857Y-81780000D02*
X234832857Y-80637142D01*
X235261428Y-80637142D02*
X235261428Y-81780000D01*
X234190000Y-77994285D02*
X234118571Y-78137142D01*
X234118571Y-78351428D01*
X234190000Y-78565714D01*
X234332857Y-78708571D01*
X234475714Y-78780000D01*
X234761428Y-78851428D01*
X234975714Y-78851428D01*
X235261428Y-78780000D01*
X235404285Y-78708571D01*
X235547142Y-78565714D01*
X235618571Y-78351428D01*
X235618571Y-78208571D01*
X235547142Y-77994285D01*
X235475714Y-77922857D01*
X234975714Y-77922857D01*
X234975714Y-78208571D01*
X235618571Y-77280000D02*
X234118571Y-77280000D01*
X235618571Y-76422857D01*
X234118571Y-76422857D01*
X235618571Y-75708571D02*
X234118571Y-75708571D01*
X234118571Y-75351428D01*
X234190000Y-75137142D01*
X234332857Y-74994285D01*
X234475714Y-74922857D01*
X234761428Y-74851428D01*
X234975714Y-74851428D01*
X235261428Y-74922857D01*
X235404285Y-74994285D01*
X235547142Y-75137142D01*
X235618571Y-75351428D01*
X235618571Y-75708571D01*
X236668571Y-87708571D02*
X236668571Y-86780000D01*
X237240000Y-87280000D01*
X237240000Y-87065714D01*
X237311428Y-86922857D01*
X237382857Y-86851428D01*
X237525714Y-86780000D01*
X237882857Y-86780000D01*
X238025714Y-86851428D01*
X238097142Y-86922857D01*
X238168571Y-87065714D01*
X238168571Y-87494285D01*
X238097142Y-87637142D01*
X238025714Y-87708571D01*
X237597142Y-86137142D02*
X237597142Y-84994285D01*
X237168571Y-83637142D02*
X238168571Y-83637142D01*
X236597142Y-83994285D02*
X237668571Y-84351428D01*
X237668571Y-83422857D01*
X237382857Y-81708571D02*
X237382857Y-80565714D01*
X237811428Y-80565714D02*
X237811428Y-81708571D01*
X238025714Y-77851428D02*
X238097142Y-77922857D01*
X238168571Y-78137142D01*
X238168571Y-78280000D01*
X238097142Y-78494285D01*
X237954285Y-78637142D01*
X237811428Y-78708571D01*
X237525714Y-78780000D01*
X237311428Y-78780000D01*
X237025714Y-78708571D01*
X236882857Y-78637142D01*
X236740000Y-78494285D01*
X236668571Y-78280000D01*
X236668571Y-78137142D01*
X236740000Y-77922857D01*
X236811428Y-77851428D01*
X237382857Y-76708571D02*
X237454285Y-76494285D01*
X237525714Y-76422857D01*
X237668571Y-76351428D01*
X237882857Y-76351428D01*
X238025714Y-76422857D01*
X238097142Y-76494285D01*
X238168571Y-76637142D01*
X238168571Y-77208571D01*
X236668571Y-77208571D01*
X236668571Y-76708571D01*
X236740000Y-76565714D01*
X236811428Y-76494285D01*
X236954285Y-76422857D01*
X237097142Y-76422857D01*
X237240000Y-76494285D01*
X237311428Y-76565714D01*
X237382857Y-76708571D01*
X237382857Y-77208571D01*
X236811428Y-75780000D02*
X236740000Y-75708571D01*
X236668571Y-75565714D01*
X236668571Y-75208571D01*
X236740000Y-75065714D01*
X236811428Y-74994285D01*
X236954285Y-74922857D01*
X237097142Y-74922857D01*
X237311428Y-74994285D01*
X238168571Y-75851428D01*
X238168571Y-74922857D01*
X239218571Y-86780000D02*
X239218571Y-87494285D01*
X239932857Y-87565714D01*
X239861428Y-87494285D01*
X239790000Y-87351428D01*
X239790000Y-86994285D01*
X239861428Y-86851428D01*
X239932857Y-86780000D01*
X240075714Y-86708571D01*
X240432857Y-86708571D01*
X240575714Y-86780000D01*
X240647142Y-86851428D01*
X240718571Y-86994285D01*
X240718571Y-87351428D01*
X240647142Y-87494285D01*
X240575714Y-87565714D01*
X240147142Y-86065714D02*
X240147142Y-84922857D01*
X239218571Y-83565714D02*
X239218571Y-83851428D01*
X239290000Y-83994285D01*
X239361428Y-84065714D01*
X239575714Y-84208571D01*
X239861428Y-84280000D01*
X240432857Y-84280000D01*
X240575714Y-84208571D01*
X240647142Y-84137142D01*
X240718571Y-83994285D01*
X240718571Y-83708571D01*
X240647142Y-83565714D01*
X240575714Y-83494285D01*
X240432857Y-83422857D01*
X240075714Y-83422857D01*
X239932857Y-83494285D01*
X239861428Y-83565714D01*
X239790000Y-83708571D01*
X239790000Y-83994285D01*
X239861428Y-84137142D01*
X239932857Y-84208571D01*
X240075714Y-84280000D01*
X239932857Y-81637142D02*
X239932857Y-80494285D01*
X240361428Y-80494285D02*
X240361428Y-81637142D01*
X239218571Y-78851428D02*
X240718571Y-78351428D01*
X239218571Y-77851428D01*
X240575714Y-76494285D02*
X240647142Y-76565714D01*
X240718571Y-76780000D01*
X240718571Y-76922857D01*
X240647142Y-77137142D01*
X240504285Y-77280000D01*
X240361428Y-77351428D01*
X240075714Y-77422857D01*
X239861428Y-77422857D01*
X239575714Y-77351428D01*
X239432857Y-77280000D01*
X239290000Y-77137142D01*
X239218571Y-76922857D01*
X239218571Y-76780000D01*
X239290000Y-76565714D01*
X239361428Y-76494285D01*
X240575714Y-74994285D02*
X240647142Y-75065714D01*
X240718571Y-75280000D01*
X240718571Y-75422857D01*
X240647142Y-75637142D01*
X240504285Y-75780000D01*
X240361428Y-75851428D01*
X240075714Y-75922857D01*
X239861428Y-75922857D01*
X239575714Y-75851428D01*
X239432857Y-75780000D01*
X239290000Y-75637142D01*
X239218571Y-75422857D01*
X239218571Y-75280000D01*
X239290000Y-75065714D01*
X239361428Y-74994285D01*
X157158571Y-62975714D02*
X158158571Y-62975714D01*
X157301428Y-62975714D02*
X157230000Y-62904285D01*
X157158571Y-62761428D01*
X157158571Y-62547142D01*
X157230000Y-62404285D01*
X157372857Y-62332857D01*
X158158571Y-62332857D01*
X158158571Y-61618571D02*
X156658571Y-61618571D01*
X156658571Y-61047142D01*
X156730000Y-60904285D01*
X156801428Y-60832857D01*
X156944285Y-60761428D01*
X157158571Y-60761428D01*
X157301428Y-60832857D01*
X157372857Y-60904285D01*
X157444285Y-61047142D01*
X157444285Y-61618571D01*
X156730000Y-59332857D02*
X156658571Y-59475714D01*
X156658571Y-59690000D01*
X156730000Y-59904285D01*
X156872857Y-60047142D01*
X157015714Y-60118571D01*
X157301428Y-60190000D01*
X157515714Y-60190000D01*
X157801428Y-60118571D01*
X157944285Y-60047142D01*
X158087142Y-59904285D01*
X158158571Y-59690000D01*
X158158571Y-59547142D01*
X158087142Y-59332857D01*
X158015714Y-59261428D01*
X157515714Y-59261428D01*
X157515714Y-59547142D01*
X157372857Y-58118571D02*
X157444285Y-57904285D01*
X157515714Y-57832857D01*
X157658571Y-57761428D01*
X157872857Y-57761428D01*
X158015714Y-57832857D01*
X158087142Y-57904285D01*
X158158571Y-58047142D01*
X158158571Y-58618571D01*
X156658571Y-58618571D01*
X156658571Y-58118571D01*
X156730000Y-57975714D01*
X156801428Y-57904285D01*
X156944285Y-57832857D01*
X157087142Y-57832857D01*
X157230000Y-57904285D01*
X157301428Y-57975714D01*
X157372857Y-58118571D01*
X157372857Y-58618571D01*
X157158571Y-56475714D02*
X158158571Y-56475714D01*
X156587142Y-56832857D02*
X157658571Y-57190000D01*
X157658571Y-56261428D01*
X148268571Y-62904285D02*
X149268571Y-62904285D01*
X148411428Y-62904285D02*
X148340000Y-62832857D01*
X148268571Y-62690000D01*
X148268571Y-62475714D01*
X148340000Y-62332857D01*
X148482857Y-62261428D01*
X149268571Y-62261428D01*
X149268571Y-61547142D02*
X147768571Y-61547142D01*
X147768571Y-60975714D01*
X147840000Y-60832857D01*
X147911428Y-60761428D01*
X148054285Y-60690000D01*
X148268571Y-60690000D01*
X148411428Y-60761428D01*
X148482857Y-60832857D01*
X148554285Y-60975714D01*
X148554285Y-61547142D01*
X147840000Y-59261428D02*
X147768571Y-59404285D01*
X147768571Y-59618571D01*
X147840000Y-59832857D01*
X147982857Y-59975714D01*
X148125714Y-60047142D01*
X148411428Y-60118571D01*
X148625714Y-60118571D01*
X148911428Y-60047142D01*
X149054285Y-59975714D01*
X149197142Y-59832857D01*
X149268571Y-59618571D01*
X149268571Y-59475714D01*
X149197142Y-59261428D01*
X149125714Y-59190000D01*
X148625714Y-59190000D01*
X148625714Y-59475714D01*
X148482857Y-58047142D02*
X148482857Y-58547142D01*
X149268571Y-58547142D02*
X147768571Y-58547142D01*
X147768571Y-57832857D01*
X149125714Y-56404285D02*
X149197142Y-56475714D01*
X149268571Y-56690000D01*
X149268571Y-56832857D01*
X149197142Y-57047142D01*
X149054285Y-57190000D01*
X148911428Y-57261428D01*
X148625714Y-57332857D01*
X148411428Y-57332857D01*
X148125714Y-57261428D01*
X147982857Y-57190000D01*
X147840000Y-57047142D01*
X147768571Y-56832857D01*
X147768571Y-56690000D01*
X147840000Y-56475714D01*
X147911428Y-56404285D01*
X143188571Y-62904285D02*
X144188571Y-62904285D01*
X143331428Y-62904285D02*
X143260000Y-62832857D01*
X143188571Y-62690000D01*
X143188571Y-62475714D01*
X143260000Y-62332857D01*
X143402857Y-62261428D01*
X144188571Y-62261428D01*
X144188571Y-61547142D02*
X142688571Y-61547142D01*
X142688571Y-60975714D01*
X142760000Y-60832857D01*
X142831428Y-60761428D01*
X142974285Y-60690000D01*
X143188571Y-60690000D01*
X143331428Y-60761428D01*
X143402857Y-60832857D01*
X143474285Y-60975714D01*
X143474285Y-61547142D01*
X142760000Y-59261428D02*
X142688571Y-59404285D01*
X142688571Y-59618571D01*
X142760000Y-59832857D01*
X142902857Y-59975714D01*
X143045714Y-60047142D01*
X143331428Y-60118571D01*
X143545714Y-60118571D01*
X143831428Y-60047142D01*
X143974285Y-59975714D01*
X144117142Y-59832857D01*
X144188571Y-59618571D01*
X144188571Y-59475714D01*
X144117142Y-59261428D01*
X144045714Y-59190000D01*
X143545714Y-59190000D01*
X143545714Y-59475714D01*
X143402857Y-58047142D02*
X143402857Y-58547142D01*
X144188571Y-58547142D02*
X142688571Y-58547142D01*
X142688571Y-57832857D01*
X144188571Y-57261428D02*
X142688571Y-57261428D01*
X142688571Y-56904285D01*
X142760000Y-56690000D01*
X142902857Y-56547142D01*
X143045714Y-56475714D01*
X143331428Y-56404285D01*
X143545714Y-56404285D01*
X143831428Y-56475714D01*
X143974285Y-56547142D01*
X144117142Y-56690000D01*
X144188571Y-56904285D01*
X144188571Y-57261428D01*
X136838571Y-62904285D02*
X137838571Y-62904285D01*
X136981428Y-62904285D02*
X136910000Y-62832857D01*
X136838571Y-62690000D01*
X136838571Y-62475714D01*
X136910000Y-62332857D01*
X137052857Y-62261428D01*
X137838571Y-62261428D01*
X137838571Y-61547142D02*
X136338571Y-61547142D01*
X136338571Y-60975714D01*
X136410000Y-60832857D01*
X136481428Y-60761428D01*
X136624285Y-60690000D01*
X136838571Y-60690000D01*
X136981428Y-60761428D01*
X137052857Y-60832857D01*
X137124285Y-60975714D01*
X137124285Y-61547142D01*
X136410000Y-59261428D02*
X136338571Y-59404285D01*
X136338571Y-59618571D01*
X136410000Y-59832857D01*
X136552857Y-59975714D01*
X136695714Y-60047142D01*
X136981428Y-60118571D01*
X137195714Y-60118571D01*
X137481428Y-60047142D01*
X137624285Y-59975714D01*
X137767142Y-59832857D01*
X137838571Y-59618571D01*
X137838571Y-59475714D01*
X137767142Y-59261428D01*
X137695714Y-59190000D01*
X137195714Y-59190000D01*
X137195714Y-59475714D01*
X137052857Y-58047142D02*
X137052857Y-58547142D01*
X137838571Y-58547142D02*
X136338571Y-58547142D01*
X136338571Y-57832857D01*
X137695714Y-56404285D02*
X137767142Y-56475714D01*
X137838571Y-56690000D01*
X137838571Y-56832857D01*
X137767142Y-57047142D01*
X137624285Y-57190000D01*
X137481428Y-57261428D01*
X137195714Y-57332857D01*
X136981428Y-57332857D01*
X136695714Y-57261428D01*
X136552857Y-57190000D01*
X136410000Y-57047142D01*
X136338571Y-56832857D01*
X136338571Y-56690000D01*
X136410000Y-56475714D01*
X136481428Y-56404285D01*
X131758571Y-62904285D02*
X132758571Y-62904285D01*
X131901428Y-62904285D02*
X131830000Y-62832857D01*
X131758571Y-62690000D01*
X131758571Y-62475714D01*
X131830000Y-62332857D01*
X131972857Y-62261428D01*
X132758571Y-62261428D01*
X132758571Y-61547142D02*
X131258571Y-61547142D01*
X131258571Y-60975714D01*
X131330000Y-60832857D01*
X131401428Y-60761428D01*
X131544285Y-60690000D01*
X131758571Y-60690000D01*
X131901428Y-60761428D01*
X131972857Y-60832857D01*
X132044285Y-60975714D01*
X132044285Y-61547142D01*
X131330000Y-59261428D02*
X131258571Y-59404285D01*
X131258571Y-59618571D01*
X131330000Y-59832857D01*
X131472857Y-59975714D01*
X131615714Y-60047142D01*
X131901428Y-60118571D01*
X132115714Y-60118571D01*
X132401428Y-60047142D01*
X132544285Y-59975714D01*
X132687142Y-59832857D01*
X132758571Y-59618571D01*
X132758571Y-59475714D01*
X132687142Y-59261428D01*
X132615714Y-59190000D01*
X132115714Y-59190000D01*
X132115714Y-59475714D01*
X131972857Y-58047142D02*
X131972857Y-58547142D01*
X132758571Y-58547142D02*
X131258571Y-58547142D01*
X131258571Y-57832857D01*
X132758571Y-57261428D02*
X131258571Y-57261428D01*
X131258571Y-56904285D01*
X131330000Y-56690000D01*
X131472857Y-56547142D01*
X131615714Y-56475714D01*
X131901428Y-56404285D01*
X132115714Y-56404285D01*
X132401428Y-56475714D01*
X132544285Y-56547142D01*
X132687142Y-56690000D01*
X132758571Y-56904285D01*
X132758571Y-57261428D01*
X127662857Y-35417857D02*
X127877142Y-35489285D01*
X127948571Y-35560714D01*
X128020000Y-35703571D01*
X128020000Y-35917857D01*
X127948571Y-36060714D01*
X127877142Y-36132142D01*
X127734285Y-36203571D01*
X127162857Y-36203571D01*
X127162857Y-34703571D01*
X127662857Y-34703571D01*
X127805714Y-34775000D01*
X127877142Y-34846428D01*
X127948571Y-34989285D01*
X127948571Y-35132142D01*
X127877142Y-35275000D01*
X127805714Y-35346428D01*
X127662857Y-35417857D01*
X127162857Y-35417857D01*
X128948571Y-34703571D02*
X129091428Y-34703571D01*
X129234285Y-34775000D01*
X129305714Y-34846428D01*
X129377142Y-34989285D01*
X129448571Y-35275000D01*
X129448571Y-35632142D01*
X129377142Y-35917857D01*
X129305714Y-36060714D01*
X129234285Y-36132142D01*
X129091428Y-36203571D01*
X128948571Y-36203571D01*
X128805714Y-36132142D01*
X128734285Y-36060714D01*
X128662857Y-35917857D01*
X128591428Y-35632142D01*
X128591428Y-35275000D01*
X128662857Y-34989285D01*
X128734285Y-34846428D01*
X128805714Y-34775000D01*
X128948571Y-34703571D01*
X127662857Y-37967857D02*
X127877142Y-38039285D01*
X127948571Y-38110714D01*
X128020000Y-38253571D01*
X128020000Y-38467857D01*
X127948571Y-38610714D01*
X127877142Y-38682142D01*
X127734285Y-38753571D01*
X127162857Y-38753571D01*
X127162857Y-37253571D01*
X127662857Y-37253571D01*
X127805714Y-37325000D01*
X127877142Y-37396428D01*
X127948571Y-37539285D01*
X127948571Y-37682142D01*
X127877142Y-37825000D01*
X127805714Y-37896428D01*
X127662857Y-37967857D01*
X127162857Y-37967857D01*
X129448571Y-38753571D02*
X128591428Y-38753571D01*
X129020000Y-38753571D02*
X129020000Y-37253571D01*
X128877142Y-37467857D01*
X128734285Y-37610714D01*
X128591428Y-37682142D01*
X127662857Y-40517857D02*
X127877142Y-40589285D01*
X127948571Y-40660714D01*
X128020000Y-40803571D01*
X128020000Y-41017857D01*
X127948571Y-41160714D01*
X127877142Y-41232142D01*
X127734285Y-41303571D01*
X127162857Y-41303571D01*
X127162857Y-39803571D01*
X127662857Y-39803571D01*
X127805714Y-39875000D01*
X127877142Y-39946428D01*
X127948571Y-40089285D01*
X127948571Y-40232142D01*
X127877142Y-40375000D01*
X127805714Y-40446428D01*
X127662857Y-40517857D01*
X127162857Y-40517857D01*
X128591428Y-39946428D02*
X128662857Y-39875000D01*
X128805714Y-39803571D01*
X129162857Y-39803571D01*
X129305714Y-39875000D01*
X129377142Y-39946428D01*
X129448571Y-40089285D01*
X129448571Y-40232142D01*
X129377142Y-40446428D01*
X128520000Y-41303571D01*
X129448571Y-41303571D01*
X127662857Y-43067857D02*
X127877142Y-43139285D01*
X127948571Y-43210714D01*
X128020000Y-43353571D01*
X128020000Y-43567857D01*
X127948571Y-43710714D01*
X127877142Y-43782142D01*
X127734285Y-43853571D01*
X127162857Y-43853571D01*
X127162857Y-42353571D01*
X127662857Y-42353571D01*
X127805714Y-42425000D01*
X127877142Y-42496428D01*
X127948571Y-42639285D01*
X127948571Y-42782142D01*
X127877142Y-42925000D01*
X127805714Y-42996428D01*
X127662857Y-43067857D01*
X127162857Y-43067857D01*
X128520000Y-42353571D02*
X129448571Y-42353571D01*
X128948571Y-42925000D01*
X129162857Y-42925000D01*
X129305714Y-42996428D01*
X129377142Y-43067857D01*
X129448571Y-43210714D01*
X129448571Y-43567857D01*
X129377142Y-43710714D01*
X129305714Y-43782142D01*
X129162857Y-43853571D01*
X128734285Y-43853571D01*
X128591428Y-43782142D01*
X128520000Y-43710714D01*
X127662857Y-45617857D02*
X127877142Y-45689285D01*
X127948571Y-45760714D01*
X128020000Y-45903571D01*
X128020000Y-46117857D01*
X127948571Y-46260714D01*
X127877142Y-46332142D01*
X127734285Y-46403571D01*
X127162857Y-46403571D01*
X127162857Y-44903571D01*
X127662857Y-44903571D01*
X127805714Y-44975000D01*
X127877142Y-45046428D01*
X127948571Y-45189285D01*
X127948571Y-45332142D01*
X127877142Y-45475000D01*
X127805714Y-45546428D01*
X127662857Y-45617857D01*
X127162857Y-45617857D01*
X129305714Y-45403571D02*
X129305714Y-46403571D01*
X128948571Y-44832142D02*
X128591428Y-45903571D01*
X129520000Y-45903571D01*
X127662857Y-48167857D02*
X127877142Y-48239285D01*
X127948571Y-48310714D01*
X128020000Y-48453571D01*
X128020000Y-48667857D01*
X127948571Y-48810714D01*
X127877142Y-48882142D01*
X127734285Y-48953571D01*
X127162857Y-48953571D01*
X127162857Y-47453571D01*
X127662857Y-47453571D01*
X127805714Y-47525000D01*
X127877142Y-47596428D01*
X127948571Y-47739285D01*
X127948571Y-47882142D01*
X127877142Y-48025000D01*
X127805714Y-48096428D01*
X127662857Y-48167857D01*
X127162857Y-48167857D01*
X129377142Y-47453571D02*
X128662857Y-47453571D01*
X128591428Y-48167857D01*
X128662857Y-48096428D01*
X128805714Y-48025000D01*
X129162857Y-48025000D01*
X129305714Y-48096428D01*
X129377142Y-48167857D01*
X129448571Y-48310714D01*
X129448571Y-48667857D01*
X129377142Y-48810714D01*
X129305714Y-48882142D01*
X129162857Y-48953571D01*
X128805714Y-48953571D01*
X128662857Y-48882142D01*
X128591428Y-48810714D01*
X127662857Y-50717857D02*
X127877142Y-50789285D01*
X127948571Y-50860714D01*
X128020000Y-51003571D01*
X128020000Y-51217857D01*
X127948571Y-51360714D01*
X127877142Y-51432142D01*
X127734285Y-51503571D01*
X127162857Y-51503571D01*
X127162857Y-50003571D01*
X127662857Y-50003571D01*
X127805714Y-50075000D01*
X127877142Y-50146428D01*
X127948571Y-50289285D01*
X127948571Y-50432142D01*
X127877142Y-50575000D01*
X127805714Y-50646428D01*
X127662857Y-50717857D01*
X127162857Y-50717857D01*
X129305714Y-50003571D02*
X129020000Y-50003571D01*
X128877142Y-50075000D01*
X128805714Y-50146428D01*
X128662857Y-50360714D01*
X128591428Y-50646428D01*
X128591428Y-51217857D01*
X128662857Y-51360714D01*
X128734285Y-51432142D01*
X128877142Y-51503571D01*
X129162857Y-51503571D01*
X129305714Y-51432142D01*
X129377142Y-51360714D01*
X129448571Y-51217857D01*
X129448571Y-50860714D01*
X129377142Y-50717857D01*
X129305714Y-50646428D01*
X129162857Y-50575000D01*
X128877142Y-50575000D01*
X128734285Y-50646428D01*
X128662857Y-50717857D01*
X128591428Y-50860714D01*
X127662857Y-53267857D02*
X127877142Y-53339285D01*
X127948571Y-53410714D01*
X128020000Y-53553571D01*
X128020000Y-53767857D01*
X127948571Y-53910714D01*
X127877142Y-53982142D01*
X127734285Y-54053571D01*
X127162857Y-54053571D01*
X127162857Y-52553571D01*
X127662857Y-52553571D01*
X127805714Y-52625000D01*
X127877142Y-52696428D01*
X127948571Y-52839285D01*
X127948571Y-52982142D01*
X127877142Y-53125000D01*
X127805714Y-53196428D01*
X127662857Y-53267857D01*
X127162857Y-53267857D01*
X128520000Y-52553571D02*
X129520000Y-52553571D01*
X128877142Y-54053571D01*
D12*
X170120000Y-39430000D02*
X170120000Y-36830000D01*
X170120000Y-39430000D02*
X195640000Y-39430000D01*
X195640000Y-39430000D02*
X195640000Y-34230000D01*
X172720000Y-34230000D02*
X195640000Y-34230000D01*
X172720000Y-36830000D02*
X172720000Y-34230000D01*
X170120000Y-36830000D02*
X172720000Y-36830000D01*
X170120000Y-34230000D02*
X171450000Y-34230000D01*
X170120000Y-35560000D02*
X170120000Y-34230000D01*
X101720000Y-31850000D02*
X96480000Y-31850000D01*
X101720000Y-29110000D02*
X96480000Y-29110000D01*
X101720000Y-31850000D02*
X101720000Y-31535000D01*
X101720000Y-29425000D02*
X101720000Y-29110000D01*
X96480000Y-31850000D02*
X96480000Y-31535000D01*
X96480000Y-29425000D02*
X96480000Y-29110000D01*
X116800000Y-29425000D02*
X116800000Y-29110000D01*
X116800000Y-31850000D02*
X116800000Y-31535000D01*
X122040000Y-29425000D02*
X122040000Y-29110000D01*
X122040000Y-31850000D02*
X122040000Y-31535000D01*
X122040000Y-29110000D02*
X116800000Y-29110000D01*
X122040000Y-31850000D02*
X116800000Y-31850000D01*
X236340000Y-29310000D02*
X231100000Y-29310000D01*
X236340000Y-26570000D02*
X231100000Y-26570000D01*
X236340000Y-29310000D02*
X236340000Y-28995000D01*
X236340000Y-26885000D02*
X236340000Y-26570000D01*
X231100000Y-29310000D02*
X231100000Y-28995000D01*
X231100000Y-26885000D02*
X231100000Y-26570000D01*
X133290000Y-34230000D02*
X134620000Y-34230000D01*
X133290000Y-35560000D02*
X133290000Y-34230000D01*
X133290000Y-36830000D02*
X135950000Y-36830000D01*
X135950000Y-36830000D02*
X135950000Y-54670000D01*
X133290000Y-36830000D02*
X133290000Y-54670000D01*
X133290000Y-54670000D02*
X135950000Y-54670000D01*
X135830000Y-54670000D02*
X138490000Y-54670000D01*
X135830000Y-36830000D02*
X135830000Y-54670000D01*
X138490000Y-36830000D02*
X138490000Y-54670000D01*
X135830000Y-36830000D02*
X138490000Y-36830000D01*
X135830000Y-35560000D02*
X135830000Y-34230000D01*
X135830000Y-34230000D02*
X137160000Y-34230000D01*
X130750000Y-34230000D02*
X132080000Y-34230000D01*
X130750000Y-35560000D02*
X130750000Y-34230000D01*
X130750000Y-36830000D02*
X133410000Y-36830000D01*
X133410000Y-36830000D02*
X133410000Y-54670000D01*
X130750000Y-36830000D02*
X130750000Y-54670000D01*
X130750000Y-54670000D02*
X133410000Y-54670000D01*
X144720000Y-54670000D02*
X147380000Y-54670000D01*
X144720000Y-36830000D02*
X144720000Y-54670000D01*
X147380000Y-36830000D02*
X147380000Y-54670000D01*
X144720000Y-36830000D02*
X147380000Y-36830000D01*
X144720000Y-35560000D02*
X144720000Y-34230000D01*
X144720000Y-34230000D02*
X146050000Y-34230000D01*
X147260000Y-54670000D02*
X149920000Y-54670000D01*
X147260000Y-36830000D02*
X147260000Y-54670000D01*
X149920000Y-36830000D02*
X149920000Y-54670000D01*
X147260000Y-36830000D02*
X149920000Y-36830000D01*
X147260000Y-35560000D02*
X147260000Y-34230000D01*
X147260000Y-34230000D02*
X148590000Y-34230000D01*
X142180000Y-34230000D02*
X143510000Y-34230000D01*
X142180000Y-35560000D02*
X142180000Y-34230000D01*
X142180000Y-36830000D02*
X144840000Y-36830000D01*
X144840000Y-36830000D02*
X144840000Y-54670000D01*
X142180000Y-36830000D02*
X142180000Y-54670000D01*
X142180000Y-54670000D02*
X144840000Y-54670000D01*
X153610000Y-34230000D02*
X154940000Y-34230000D01*
X153610000Y-35560000D02*
X153610000Y-34230000D01*
X153610000Y-36830000D02*
X156270000Y-36830000D01*
X156270000Y-36830000D02*
X156270000Y-54670000D01*
X153610000Y-36830000D02*
X153610000Y-54670000D01*
X153610000Y-54670000D02*
X156270000Y-54670000D01*
X156150000Y-54670000D02*
X158810000Y-54670000D01*
X156150000Y-36830000D02*
X156150000Y-54670000D01*
X158810000Y-36830000D02*
X158810000Y-54670000D01*
X156150000Y-36830000D02*
X158810000Y-36830000D01*
X156150000Y-35560000D02*
X156150000Y-34230000D01*
X156150000Y-34230000D02*
X157480000Y-34230000D01*
X172780000Y-132600000D02*
X171730000Y-132600000D01*
X171730000Y-133650000D02*
X171730000Y-132600000D01*
X181130000Y-138700000D02*
X181130000Y-147500000D01*
X181130000Y-147500000D02*
X171930000Y-147500000D01*
X178430000Y-132800000D02*
X181130000Y-132800000D01*
X181130000Y-132800000D02*
X181130000Y-134700000D01*
X171930000Y-147500000D02*
X171930000Y-132800000D01*
X171930000Y-132800000D02*
X174530000Y-132800000D01*
X86840000Y-134070000D02*
X89440000Y-134070000D01*
X86840000Y-148770000D02*
X86840000Y-134070000D01*
X96040000Y-134070000D02*
X96040000Y-135970000D01*
X93340000Y-134070000D02*
X96040000Y-134070000D01*
X96040000Y-148770000D02*
X86840000Y-148770000D01*
X96040000Y-139970000D02*
X96040000Y-148770000D01*
X86640000Y-134920000D02*
X86640000Y-133870000D01*
X87690000Y-133870000D02*
X86640000Y-133870000D01*
X62290000Y-133520000D02*
X61240000Y-133520000D01*
X61240000Y-134570000D02*
X61240000Y-133520000D01*
X70640000Y-139620000D02*
X70640000Y-148420000D01*
X70640000Y-148420000D02*
X61440000Y-148420000D01*
X67940000Y-133720000D02*
X70640000Y-133720000D01*
X70640000Y-133720000D02*
X70640000Y-135620000D01*
X61440000Y-148420000D02*
X61440000Y-133720000D01*
X61440000Y-133720000D02*
X64040000Y-133720000D01*
X74140000Y-133720000D02*
X76740000Y-133720000D01*
X74140000Y-148420000D02*
X74140000Y-133720000D01*
X83340000Y-133720000D02*
X83340000Y-135620000D01*
X80640000Y-133720000D02*
X83340000Y-133720000D01*
X83340000Y-148420000D02*
X74140000Y-148420000D01*
X83340000Y-139620000D02*
X83340000Y-148420000D01*
X73940000Y-134570000D02*
X73940000Y-133520000D01*
X74990000Y-133520000D02*
X73940000Y-133520000D01*
X241300000Y-92964000D02*
X241808000Y-92710000D01*
X241300000Y-92456000D02*
X241300000Y-92964000D01*
X241808000Y-92710000D02*
X241300000Y-92456000D01*
X242440000Y-125860000D02*
X249590000Y-125860000D01*
X249590000Y-125860000D02*
X259840000Y-122660000D01*
X259840000Y-122660000D02*
X259840000Y-118660000D01*
X259840000Y-118660000D02*
X255390000Y-116760000D01*
X255390000Y-116760000D02*
X255390000Y-91660000D01*
X255390000Y-91660000D02*
X259840000Y-89610000D01*
X259840000Y-89610000D02*
X259840000Y-85660000D01*
X259840000Y-85660000D02*
X249590000Y-82410000D01*
X249590000Y-82410000D02*
X242440000Y-82410000D01*
X242450000Y-125850000D02*
X242450000Y-82430000D01*
X241300000Y-38354000D02*
X241808000Y-38100000D01*
X241300000Y-37846000D02*
X241300000Y-38354000D01*
X241808000Y-38100000D02*
X241300000Y-37846000D01*
X259840000Y-31000000D02*
X259840000Y-35000000D01*
X259840000Y-35000000D02*
X255390000Y-37150000D01*
X255390000Y-37150000D02*
X255390000Y-69750000D01*
X255390000Y-69750000D02*
X259840000Y-71650000D01*
X259840000Y-71650000D02*
X259840000Y-75700000D01*
X259840000Y-75700000D02*
X249490000Y-78900000D01*
X249490000Y-78900000D02*
X242440000Y-78900000D01*
X242440000Y-27800000D02*
X249590000Y-27800000D01*
X249590000Y-27800000D02*
X259840000Y-31000000D01*
X242450000Y-78860000D02*
X242450000Y-27820000D01*
X234890000Y-73720000D02*
X240090000Y-73720000D01*
X234890000Y-68580000D02*
X234890000Y-73720000D01*
X240090000Y-65980000D02*
X240090000Y-73720000D01*
X234890000Y-68580000D02*
X237490000Y-68580000D01*
X237490000Y-68580000D02*
X237490000Y-65980000D01*
X237490000Y-65980000D02*
X240090000Y-65980000D01*
X234890000Y-67310000D02*
X234890000Y-65980000D01*
X234890000Y-65980000D02*
X236220000Y-65980000D01*
X107890000Y-47050000D02*
X110550000Y-47050000D01*
X107890000Y-41910000D02*
X107890000Y-47050000D01*
X110550000Y-41910000D02*
X110550000Y-47050000D01*
X107890000Y-41910000D02*
X110550000Y-41910000D01*
X107890000Y-40640000D02*
X107890000Y-39310000D01*
X107890000Y-39310000D02*
X109220000Y-39310000D01*
X239776000Y-130810000D02*
X240030000Y-131318000D01*
X240284000Y-130810000D02*
X239776000Y-130810000D01*
X240030000Y-131318000D02*
X240284000Y-130810000D01*
X250980000Y-131950000D02*
X250980000Y-139050000D01*
X188480000Y-131950000D02*
X188480000Y-139150000D01*
X188480000Y-139150000D02*
X191030000Y-149300000D01*
X191030000Y-149300000D02*
X194980000Y-149300000D01*
X194980000Y-149300000D02*
X196280000Y-144850000D01*
X196280000Y-144850000D02*
X243130000Y-144850000D01*
X243130000Y-144850000D02*
X244380000Y-149300000D01*
X244380000Y-149300000D02*
X248380000Y-149300000D01*
X248380000Y-149300000D02*
X250980000Y-139050000D01*
X188480000Y-131960000D02*
X250940000Y-131960000D01*
X102120000Y-131960000D02*
X164580000Y-131960000D01*
X162020000Y-149300000D02*
X164620000Y-139050000D01*
X158020000Y-149300000D02*
X162020000Y-149300000D01*
X156770000Y-144850000D02*
X158020000Y-149300000D01*
X109920000Y-144850000D02*
X156770000Y-144850000D01*
X108620000Y-149300000D02*
X109920000Y-144850000D01*
X104670000Y-149300000D02*
X108620000Y-149300000D01*
X102120000Y-139150000D02*
X104670000Y-149300000D01*
X102120000Y-131950000D02*
X102120000Y-139150000D01*
X164620000Y-131950000D02*
X164620000Y-139050000D01*
X153670000Y-131318000D02*
X153924000Y-130810000D01*
X153924000Y-130810000D02*
X153416000Y-130810000D01*
X153416000Y-130810000D02*
X153670000Y-131318000D01*
X231220000Y-65790000D02*
X225980000Y-65790000D01*
X225980000Y-65790000D02*
X225980000Y-81530000D01*
X225980000Y-81530000D02*
X231220000Y-81530000D01*
X231220000Y-81530000D02*
X231220000Y-65790000D01*
X228600000Y-64940000D02*
X228600000Y-65790000D01*
X228600000Y-82380000D02*
X228600000Y-81530000D01*
X222250000Y-82380000D02*
X222250000Y-81530000D01*
X222250000Y-64940000D02*
X222250000Y-65790000D01*
X224870000Y-81530000D02*
X224870000Y-65790000D01*
X219630000Y-81530000D02*
X224870000Y-81530000D01*
X219630000Y-65790000D02*
X219630000Y-81530000D01*
X224870000Y-65790000D02*
X219630000Y-65790000D01*
X213280000Y-81530000D02*
X218520000Y-81530000D01*
X218520000Y-81530000D02*
X218520000Y-65790000D01*
X218520000Y-65790000D02*
X213280000Y-65790000D01*
X213280000Y-65790000D02*
X213280000Y-81530000D01*
X215900000Y-82380000D02*
X215900000Y-81530000D01*
X215900000Y-64940000D02*
X215900000Y-65790000D01*
X234680000Y-31690000D02*
G75*
G02X232680000Y-31690000I-1000000J0D01*
G01*
X232680000Y-31690000D02*
X231430000Y-31690000D01*
X231430000Y-31690000D02*
X231430000Y-57210000D01*
X231430000Y-57210000D02*
X235930000Y-57210000D01*
X235930000Y-57210000D02*
X235930000Y-31690000D01*
X235930000Y-31690000D02*
X234680000Y-31690000D01*
X228430000Y-31630000D02*
X228430000Y-57270000D01*
X228430000Y-57270000D02*
X238930000Y-57270000D01*
X238930000Y-57270000D02*
X238930000Y-31630000D01*
X238930000Y-31630000D02*
X228430000Y-31630000D01*
X120380000Y-34230000D02*
G75*
G02X118380000Y-34230000I-1000000J0D01*
G01*
X118380000Y-34230000D02*
X117130000Y-34230000D01*
X117130000Y-34230000D02*
X117130000Y-54670000D01*
X117130000Y-54670000D02*
X121630000Y-54670000D01*
X121630000Y-54670000D02*
X121630000Y-34230000D01*
X121630000Y-34230000D02*
X120380000Y-34230000D01*
X114130000Y-34170000D02*
X114130000Y-54730000D01*
X114130000Y-54730000D02*
X124630000Y-54730000D01*
X124630000Y-54730000D02*
X124630000Y-34170000D01*
X124630000Y-34170000D02*
X114130000Y-34170000D01*
X104310000Y-34170000D02*
X93810000Y-34170000D01*
X104310000Y-54730000D02*
X104310000Y-34170000D01*
X93810000Y-54730000D02*
X104310000Y-54730000D01*
X93810000Y-34170000D02*
X93810000Y-54730000D01*
X101310000Y-34230000D02*
X100060000Y-34230000D01*
X101310000Y-54670000D02*
X101310000Y-34230000D01*
X96810000Y-54670000D02*
X101310000Y-54670000D01*
X96810000Y-34230000D02*
X96810000Y-54670000D01*
X98060000Y-34230000D02*
X96810000Y-34230000D01*
X100060000Y-34230000D02*
G75*
G02X98060000Y-34230000I-1000000J0D01*
G01*
X73410000Y-27860000D02*
X73410000Y-33100000D01*
X73410000Y-33100000D02*
X89150000Y-33100000D01*
X89150000Y-33100000D02*
X89150000Y-27860000D01*
X89150000Y-27860000D02*
X73410000Y-27860000D01*
X72560000Y-30480000D02*
X73410000Y-30480000D01*
X90000000Y-30480000D02*
X89150000Y-30480000D01*
D13*
X169132380Y-37568095D02*
X168132380Y-37568095D01*
X168132380Y-37187142D01*
X168180000Y-37091904D01*
X168227619Y-37044285D01*
X168322857Y-36996666D01*
X168465714Y-36996666D01*
X168560952Y-37044285D01*
X168608571Y-37091904D01*
X168656190Y-37187142D01*
X168656190Y-37568095D01*
X169132380Y-36044285D02*
X169132380Y-36615714D01*
X169132380Y-36330000D02*
X168132380Y-36330000D01*
X168275238Y-36425238D01*
X168370476Y-36520476D01*
X168418095Y-36615714D01*
X98933333Y-33337142D02*
X98885714Y-33384761D01*
X98742857Y-33432380D01*
X98647619Y-33432380D01*
X98504761Y-33384761D01*
X98409523Y-33289523D01*
X98361904Y-33194285D01*
X98314285Y-33003809D01*
X98314285Y-32860952D01*
X98361904Y-32670476D01*
X98409523Y-32575238D01*
X98504761Y-32480000D01*
X98647619Y-32432380D01*
X98742857Y-32432380D01*
X98885714Y-32480000D01*
X98933333Y-32527619D01*
X99885714Y-33432380D02*
X99314285Y-33432380D01*
X99600000Y-33432380D02*
X99600000Y-32432380D01*
X99504761Y-32575238D01*
X99409523Y-32670476D01*
X99314285Y-32718095D01*
X119253333Y-33337142D02*
X119205714Y-33384761D01*
X119062857Y-33432380D01*
X118967619Y-33432380D01*
X118824761Y-33384761D01*
X118729523Y-33289523D01*
X118681904Y-33194285D01*
X118634285Y-33003809D01*
X118634285Y-32860952D01*
X118681904Y-32670476D01*
X118729523Y-32575238D01*
X118824761Y-32480000D01*
X118967619Y-32432380D01*
X119062857Y-32432380D01*
X119205714Y-32480000D01*
X119253333Y-32527619D01*
X119634285Y-32527619D02*
X119681904Y-32480000D01*
X119777142Y-32432380D01*
X120015238Y-32432380D01*
X120110476Y-32480000D01*
X120158095Y-32527619D01*
X120205714Y-32622857D01*
X120205714Y-32718095D01*
X120158095Y-32860952D01*
X119586666Y-33432380D01*
X120205714Y-33432380D01*
X238593333Y-27027142D02*
X238545714Y-27074761D01*
X238402857Y-27122380D01*
X238307619Y-27122380D01*
X238164761Y-27074761D01*
X238069523Y-26979523D01*
X238021904Y-26884285D01*
X237974285Y-26693809D01*
X237974285Y-26550952D01*
X238021904Y-26360476D01*
X238069523Y-26265238D01*
X238164761Y-26170000D01*
X238307619Y-26122380D01*
X238402857Y-26122380D01*
X238545714Y-26170000D01*
X238593333Y-26217619D01*
X238926666Y-26122380D02*
X239545714Y-26122380D01*
X239212380Y-26503333D01*
X239355238Y-26503333D01*
X239450476Y-26550952D01*
X239498095Y-26598571D01*
X239545714Y-26693809D01*
X239545714Y-26931904D01*
X239498095Y-27027142D01*
X239450476Y-27074761D01*
X239355238Y-27122380D01*
X239069523Y-27122380D01*
X238974285Y-27074761D01*
X238926666Y-27027142D01*
X134286666Y-32682380D02*
X134286666Y-33396666D01*
X134239047Y-33539523D01*
X134143809Y-33634761D01*
X134000952Y-33682380D01*
X133905714Y-33682380D01*
X135286666Y-33682380D02*
X134715238Y-33682380D01*
X135000952Y-33682380D02*
X135000952Y-32682380D01*
X134905714Y-32825238D01*
X134810476Y-32920476D01*
X134715238Y-32968095D01*
X136826666Y-32682380D02*
X136826666Y-33396666D01*
X136779047Y-33539523D01*
X136683809Y-33634761D01*
X136540952Y-33682380D01*
X136445714Y-33682380D01*
X137255238Y-32777619D02*
X137302857Y-32730000D01*
X137398095Y-32682380D01*
X137636190Y-32682380D01*
X137731428Y-32730000D01*
X137779047Y-32777619D01*
X137826666Y-32872857D01*
X137826666Y-32968095D01*
X137779047Y-33110952D01*
X137207619Y-33682380D01*
X137826666Y-33682380D01*
X131746666Y-32682380D02*
X131746666Y-33396666D01*
X131699047Y-33539523D01*
X131603809Y-33634761D01*
X131460952Y-33682380D01*
X131365714Y-33682380D01*
X132127619Y-32682380D02*
X132746666Y-32682380D01*
X132413333Y-33063333D01*
X132556190Y-33063333D01*
X132651428Y-33110952D01*
X132699047Y-33158571D01*
X132746666Y-33253809D01*
X132746666Y-33491904D01*
X132699047Y-33587142D01*
X132651428Y-33634761D01*
X132556190Y-33682380D01*
X132270476Y-33682380D01*
X132175238Y-33634761D01*
X132127619Y-33587142D01*
X145716666Y-32682380D02*
X145716666Y-33396666D01*
X145669047Y-33539523D01*
X145573809Y-33634761D01*
X145430952Y-33682380D01*
X145335714Y-33682380D01*
X146621428Y-33015714D02*
X146621428Y-33682380D01*
X146383333Y-32634761D02*
X146145238Y-33349047D01*
X146764285Y-33349047D01*
X148256666Y-32682380D02*
X148256666Y-33396666D01*
X148209047Y-33539523D01*
X148113809Y-33634761D01*
X147970952Y-33682380D01*
X147875714Y-33682380D01*
X149209047Y-32682380D02*
X148732857Y-32682380D01*
X148685238Y-33158571D01*
X148732857Y-33110952D01*
X148828095Y-33063333D01*
X149066190Y-33063333D01*
X149161428Y-33110952D01*
X149209047Y-33158571D01*
X149256666Y-33253809D01*
X149256666Y-33491904D01*
X149209047Y-33587142D01*
X149161428Y-33634761D01*
X149066190Y-33682380D01*
X148828095Y-33682380D01*
X148732857Y-33634761D01*
X148685238Y-33587142D01*
X143176666Y-32682380D02*
X143176666Y-33396666D01*
X143129047Y-33539523D01*
X143033809Y-33634761D01*
X142890952Y-33682380D01*
X142795714Y-33682380D01*
X144081428Y-32682380D02*
X143890952Y-32682380D01*
X143795714Y-32730000D01*
X143748095Y-32777619D01*
X143652857Y-32920476D01*
X143605238Y-33110952D01*
X143605238Y-33491904D01*
X143652857Y-33587142D01*
X143700476Y-33634761D01*
X143795714Y-33682380D01*
X143986190Y-33682380D01*
X144081428Y-33634761D01*
X144129047Y-33587142D01*
X144176666Y-33491904D01*
X144176666Y-33253809D01*
X144129047Y-33158571D01*
X144081428Y-33110952D01*
X143986190Y-33063333D01*
X143795714Y-33063333D01*
X143700476Y-33110952D01*
X143652857Y-33158571D01*
X143605238Y-33253809D01*
X154606666Y-32682380D02*
X154606666Y-33396666D01*
X154559047Y-33539523D01*
X154463809Y-33634761D01*
X154320952Y-33682380D01*
X154225714Y-33682380D01*
X154987619Y-32682380D02*
X155654285Y-32682380D01*
X155225714Y-33682380D01*
X157146666Y-32682380D02*
X157146666Y-33396666D01*
X157099047Y-33539523D01*
X157003809Y-33634761D01*
X156860952Y-33682380D01*
X156765714Y-33682380D01*
X157765714Y-33110952D02*
X157670476Y-33063333D01*
X157622857Y-33015714D01*
X157575238Y-32920476D01*
X157575238Y-32872857D01*
X157622857Y-32777619D01*
X157670476Y-32730000D01*
X157765714Y-32682380D01*
X157956190Y-32682380D01*
X158051428Y-32730000D01*
X158099047Y-32777619D01*
X158146666Y-32872857D01*
X158146666Y-32920476D01*
X158099047Y-33015714D01*
X158051428Y-33063333D01*
X157956190Y-33110952D01*
X157765714Y-33110952D01*
X157670476Y-33158571D01*
X157622857Y-33206190D01*
X157575238Y-33301428D01*
X157575238Y-33491904D01*
X157622857Y-33587142D01*
X157670476Y-33634761D01*
X157765714Y-33682380D01*
X157956190Y-33682380D01*
X158051428Y-33634761D01*
X158099047Y-33587142D01*
X158146666Y-33491904D01*
X158146666Y-33301428D01*
X158099047Y-33206190D01*
X158051428Y-33158571D01*
X157956190Y-33110952D01*
X181732380Y-142483333D02*
X182446666Y-142483333D01*
X182589523Y-142530952D01*
X182684761Y-142626190D01*
X182732380Y-142769047D01*
X182732380Y-142864285D01*
X182732380Y-141959523D02*
X182732380Y-141769047D01*
X182684761Y-141673809D01*
X182637142Y-141626190D01*
X182494285Y-141530952D01*
X182303809Y-141483333D01*
X181922857Y-141483333D01*
X181827619Y-141530952D01*
X181780000Y-141578571D01*
X181732380Y-141673809D01*
X181732380Y-141864285D01*
X181780000Y-141959523D01*
X181827619Y-142007142D01*
X181922857Y-142054761D01*
X182160952Y-142054761D01*
X182256190Y-142007142D01*
X182303809Y-141959523D01*
X182351428Y-141864285D01*
X182351428Y-141673809D01*
X182303809Y-141578571D01*
X182256190Y-141530952D01*
X182160952Y-141483333D01*
X96642380Y-144229523D02*
X97356666Y-144229523D01*
X97499523Y-144277142D01*
X97594761Y-144372380D01*
X97642380Y-144515238D01*
X97642380Y-144610476D01*
X97642380Y-143229523D02*
X97642380Y-143800952D01*
X97642380Y-143515238D02*
X96642380Y-143515238D01*
X96785238Y-143610476D01*
X96880476Y-143705714D01*
X96928095Y-143800952D01*
X96642380Y-142610476D02*
X96642380Y-142515238D01*
X96690000Y-142420000D01*
X96737619Y-142372380D01*
X96832857Y-142324761D01*
X97023333Y-142277142D01*
X97261428Y-142277142D01*
X97451904Y-142324761D01*
X97547142Y-142372380D01*
X97594761Y-142420000D01*
X97642380Y-142515238D01*
X97642380Y-142610476D01*
X97594761Y-142705714D01*
X97547142Y-142753333D01*
X97451904Y-142800952D01*
X97261428Y-142848571D01*
X97023333Y-142848571D01*
X96832857Y-142800952D01*
X96737619Y-142753333D01*
X96690000Y-142705714D01*
X96642380Y-142610476D01*
X71242380Y-143879523D02*
X71956666Y-143879523D01*
X72099523Y-143927142D01*
X72194761Y-144022380D01*
X72242380Y-144165238D01*
X72242380Y-144260476D01*
X72242380Y-142879523D02*
X72242380Y-143450952D01*
X72242380Y-143165238D02*
X71242380Y-143165238D01*
X71385238Y-143260476D01*
X71480476Y-143355714D01*
X71528095Y-143450952D01*
X72242380Y-141927142D02*
X72242380Y-142498571D01*
X72242380Y-142212857D02*
X71242380Y-142212857D01*
X71385238Y-142308095D01*
X71480476Y-142403333D01*
X71528095Y-142498571D01*
X83942380Y-143879523D02*
X84656666Y-143879523D01*
X84799523Y-143927142D01*
X84894761Y-144022380D01*
X84942380Y-144165238D01*
X84942380Y-144260476D01*
X84942380Y-142879523D02*
X84942380Y-143450952D01*
X84942380Y-143165238D02*
X83942380Y-143165238D01*
X84085238Y-143260476D01*
X84180476Y-143355714D01*
X84228095Y-143450952D01*
X84037619Y-142498571D02*
X83990000Y-142450952D01*
X83942380Y-142355714D01*
X83942380Y-142117619D01*
X83990000Y-142022380D01*
X84037619Y-141974761D01*
X84132857Y-141927142D01*
X84228095Y-141927142D01*
X84370952Y-141974761D01*
X84942380Y-142546190D01*
X84942380Y-141927142D01*
X241752380Y-125198095D02*
X240752380Y-125198095D01*
X240752380Y-124817142D01*
X240800000Y-124721904D01*
X240847619Y-124674285D01*
X240942857Y-124626666D01*
X241085714Y-124626666D01*
X241180952Y-124674285D01*
X241228571Y-124721904D01*
X241276190Y-124817142D01*
X241276190Y-125198095D01*
X240847619Y-124245714D02*
X240800000Y-124198095D01*
X240752380Y-124102857D01*
X240752380Y-123864761D01*
X240800000Y-123769523D01*
X240847619Y-123721904D01*
X240942857Y-123674285D01*
X241038095Y-123674285D01*
X241180952Y-123721904D01*
X241752380Y-124293333D01*
X241752380Y-123674285D01*
X241752380Y-59158095D02*
X240752380Y-59158095D01*
X240752380Y-58777142D01*
X240800000Y-58681904D01*
X240847619Y-58634285D01*
X240942857Y-58586666D01*
X241085714Y-58586666D01*
X241180952Y-58634285D01*
X241228571Y-58681904D01*
X241276190Y-58777142D01*
X241276190Y-59158095D01*
X240752380Y-58253333D02*
X240752380Y-57634285D01*
X241133333Y-57967619D01*
X241133333Y-57824761D01*
X241180952Y-57729523D01*
X241228571Y-57681904D01*
X241323809Y-57634285D01*
X241561904Y-57634285D01*
X241657142Y-57681904D01*
X241704761Y-57729523D01*
X241752380Y-57824761D01*
X241752380Y-58110476D01*
X241704761Y-58205714D01*
X241657142Y-58253333D01*
X236751904Y-65432380D02*
X236751904Y-64432380D01*
X237132857Y-64432380D01*
X237228095Y-64480000D01*
X237275714Y-64527619D01*
X237323333Y-64622857D01*
X237323333Y-64765714D01*
X237275714Y-64860952D01*
X237228095Y-64908571D01*
X237132857Y-64956190D01*
X236751904Y-64956190D01*
X237656666Y-64432380D02*
X238323333Y-64432380D01*
X237894761Y-65432380D01*
X108481904Y-38762380D02*
X108481904Y-37762380D01*
X108862857Y-37762380D01*
X108958095Y-37810000D01*
X109005714Y-37857619D01*
X109053333Y-37952857D01*
X109053333Y-38095714D01*
X109005714Y-38190952D01*
X108958095Y-38238571D01*
X108862857Y-38286190D01*
X108481904Y-38286190D01*
X109624761Y-38190952D02*
X109529523Y-38143333D01*
X109481904Y-38095714D01*
X109434285Y-38000476D01*
X109434285Y-37952857D01*
X109481904Y-37857619D01*
X109529523Y-37810000D01*
X109624761Y-37762380D01*
X109815238Y-37762380D01*
X109910476Y-37810000D01*
X109958095Y-37857619D01*
X110005714Y-37952857D01*
X110005714Y-38000476D01*
X109958095Y-38095714D01*
X109910476Y-38143333D01*
X109815238Y-38190952D01*
X109624761Y-38190952D01*
X109529523Y-38238571D01*
X109481904Y-38286190D01*
X109434285Y-38381428D01*
X109434285Y-38571904D01*
X109481904Y-38667142D01*
X109529523Y-38714761D01*
X109624761Y-38762380D01*
X109815238Y-38762380D01*
X109910476Y-38714761D01*
X109958095Y-38667142D01*
X110005714Y-38571904D01*
X110005714Y-38381428D01*
X109958095Y-38286190D01*
X109910476Y-38238571D01*
X109815238Y-38190952D01*
X188491904Y-131262380D02*
X188491904Y-130262380D01*
X188872857Y-130262380D01*
X188968095Y-130310000D01*
X189015714Y-130357619D01*
X189063333Y-130452857D01*
X189063333Y-130595714D01*
X189015714Y-130690952D01*
X188968095Y-130738571D01*
X188872857Y-130786190D01*
X188491904Y-130786190D01*
X189539523Y-131262380D02*
X189730000Y-131262380D01*
X189825238Y-131214761D01*
X189872857Y-131167142D01*
X189968095Y-131024285D01*
X190015714Y-130833809D01*
X190015714Y-130452857D01*
X189968095Y-130357619D01*
X189920476Y-130310000D01*
X189825238Y-130262380D01*
X189634761Y-130262380D01*
X189539523Y-130310000D01*
X189491904Y-130357619D01*
X189444285Y-130452857D01*
X189444285Y-130690952D01*
X189491904Y-130786190D01*
X189539523Y-130833809D01*
X189634761Y-130881428D01*
X189825238Y-130881428D01*
X189920476Y-130833809D01*
X189968095Y-130786190D01*
X190015714Y-130690952D01*
X102925714Y-131262380D02*
X102925714Y-130262380D01*
X103306666Y-130262380D01*
X103401904Y-130310000D01*
X103449523Y-130357619D01*
X103497142Y-130452857D01*
X103497142Y-130595714D01*
X103449523Y-130690952D01*
X103401904Y-130738571D01*
X103306666Y-130786190D01*
X102925714Y-130786190D01*
X104449523Y-131262380D02*
X103878095Y-131262380D01*
X104163809Y-131262380D02*
X104163809Y-130262380D01*
X104068571Y-130405238D01*
X103973333Y-130500476D01*
X103878095Y-130548095D01*
X105068571Y-130262380D02*
X105163809Y-130262380D01*
X105259047Y-130310000D01*
X105306666Y-130357619D01*
X105354285Y-130452857D01*
X105401904Y-130643333D01*
X105401904Y-130881428D01*
X105354285Y-131071904D01*
X105306666Y-131167142D01*
X105259047Y-131214761D01*
X105163809Y-131262380D01*
X105068571Y-131262380D01*
X104973333Y-131214761D01*
X104925714Y-131167142D01*
X104878095Y-131071904D01*
X104830476Y-130881428D01*
X104830476Y-130643333D01*
X104878095Y-130452857D01*
X104925714Y-130357619D01*
X104973333Y-130310000D01*
X105068571Y-130262380D01*
X228433333Y-86812380D02*
X228100000Y-86336190D01*
X227861904Y-86812380D02*
X227861904Y-85812380D01*
X228242857Y-85812380D01*
X228338095Y-85860000D01*
X228385714Y-85907619D01*
X228433333Y-86002857D01*
X228433333Y-86145714D01*
X228385714Y-86240952D01*
X228338095Y-86288571D01*
X228242857Y-86336190D01*
X227861904Y-86336190D01*
X229385714Y-86812380D02*
X228814285Y-86812380D01*
X229100000Y-86812380D02*
X229100000Y-85812380D01*
X229004761Y-85955238D01*
X228909523Y-86050476D01*
X228814285Y-86098095D01*
X222083333Y-86812380D02*
X221750000Y-86336190D01*
X221511904Y-86812380D02*
X221511904Y-85812380D01*
X221892857Y-85812380D01*
X221988095Y-85860000D01*
X222035714Y-85907619D01*
X222083333Y-86002857D01*
X222083333Y-86145714D01*
X222035714Y-86240952D01*
X221988095Y-86288571D01*
X221892857Y-86336190D01*
X221511904Y-86336190D01*
X222464285Y-85907619D02*
X222511904Y-85860000D01*
X222607142Y-85812380D01*
X222845238Y-85812380D01*
X222940476Y-85860000D01*
X222988095Y-85907619D01*
X223035714Y-86002857D01*
X223035714Y-86098095D01*
X222988095Y-86240952D01*
X222416666Y-86812380D01*
X223035714Y-86812380D01*
X215733333Y-86812380D02*
X215400000Y-86336190D01*
X215161904Y-86812380D02*
X215161904Y-85812380D01*
X215542857Y-85812380D01*
X215638095Y-85860000D01*
X215685714Y-85907619D01*
X215733333Y-86002857D01*
X215733333Y-86145714D01*
X215685714Y-86240952D01*
X215638095Y-86288571D01*
X215542857Y-86336190D01*
X215161904Y-86336190D01*
X216066666Y-85812380D02*
X216685714Y-85812380D01*
X216352380Y-86193333D01*
X216495238Y-86193333D01*
X216590476Y-86240952D01*
X216638095Y-86288571D01*
X216685714Y-86383809D01*
X216685714Y-86621904D01*
X216638095Y-86717142D01*
X216590476Y-86764761D01*
X216495238Y-86812380D01*
X216209523Y-86812380D01*
X216114285Y-86764761D01*
X216066666Y-86717142D01*
X232918095Y-30142380D02*
X232918095Y-30951904D01*
X232965714Y-31047142D01*
X233013333Y-31094761D01*
X233108571Y-31142380D01*
X233299047Y-31142380D01*
X233394285Y-31094761D01*
X233441904Y-31047142D01*
X233489523Y-30951904D01*
X233489523Y-30142380D01*
X234489523Y-31142380D02*
X233918095Y-31142380D01*
X234203809Y-31142380D02*
X234203809Y-30142380D01*
X234108571Y-30285238D01*
X234013333Y-30380476D01*
X233918095Y-30428095D01*
X118618095Y-32682380D02*
X118618095Y-33491904D01*
X118665714Y-33587142D01*
X118713333Y-33634761D01*
X118808571Y-33682380D01*
X118999047Y-33682380D01*
X119094285Y-33634761D01*
X119141904Y-33587142D01*
X119189523Y-33491904D01*
X119189523Y-32682380D01*
X119618095Y-32777619D02*
X119665714Y-32730000D01*
X119760952Y-32682380D01*
X119999047Y-32682380D01*
X120094285Y-32730000D01*
X120141904Y-32777619D01*
X120189523Y-32872857D01*
X120189523Y-32968095D01*
X120141904Y-33110952D01*
X119570476Y-33682380D01*
X120189523Y-33682380D01*
X98298095Y-32682380D02*
X98298095Y-33491904D01*
X98345714Y-33587142D01*
X98393333Y-33634761D01*
X98488571Y-33682380D01*
X98679047Y-33682380D01*
X98774285Y-33634761D01*
X98821904Y-33587142D01*
X98869523Y-33491904D01*
X98869523Y-32682380D01*
X99250476Y-32682380D02*
X99869523Y-32682380D01*
X99536190Y-33063333D01*
X99679047Y-33063333D01*
X99774285Y-33110952D01*
X99821904Y-33158571D01*
X99869523Y-33253809D01*
X99869523Y-33491904D01*
X99821904Y-33587142D01*
X99774285Y-33634761D01*
X99679047Y-33682380D01*
X99393333Y-33682380D01*
X99298095Y-33634761D01*
X99250476Y-33587142D01*
X81113333Y-27312380D02*
X80780000Y-26836190D01*
X80541904Y-27312380D02*
X80541904Y-26312380D01*
X80922857Y-26312380D01*
X81018095Y-26360000D01*
X81065714Y-26407619D01*
X81113333Y-26502857D01*
X81113333Y-26645714D01*
X81065714Y-26740952D01*
X81018095Y-26788571D01*
X80922857Y-26836190D01*
X80541904Y-26836190D01*
X81970476Y-26645714D02*
X81970476Y-27312380D01*
X81732380Y-26264761D02*
X81494285Y-26979047D01*
X82113333Y-26979047D01*
M02*
