M48
; DRILL file {KiCad (5.1.2-1)-1} date 2019 August 04, Sunday 21:58:08
; FORMAT={-:-/ absolute / metric / decimal}
; #@! TF.CreationDate,2019-08-04T21:58:08+02:00
; #@! TF.GenerationSoftware,Kicad,Pcbnew,(5.1.2-1)-1
; #@! TF.FileFunction,Plated,1,2,PTH
FMAT,2
METRIC
T1C0.400
T2C0.800
T3C1.000
T4C1.200
T5C3.000
%
G90
G05
T1
X74.93Y-34.29
X74.93Y-59.69
X74.93Y-59.69
X74.93Y-59.69
X76.2Y-35.56
X76.2Y-105.41
X77.47Y-38.1
X77.47Y-102.87
X78.74Y-62.23
X78.74Y-129.54
X80.01Y-64.77
X80.01Y-128.27
X81.28Y-67.31
X81.28Y-127.0
X82.55Y-69.85
X82.55Y-125.73
X83.82Y-66.04
X83.82Y-68.58
X85.09Y-63.5
X85.09Y-67.31
X86.36Y-60.96
X86.36Y-66.04
X87.63Y-58.42
X87.63Y-64.77
X88.9Y-55.88
X88.9Y-63.5
X90.17Y-53.34
X90.17Y-62.23
X91.44Y-50.8
X91.44Y-60.96
X106.68Y-120.65
X110.49Y-38.1
X110.49Y-113.03
X111.76Y-40.64
X111.76Y-110.49
X111.76Y-129.54
X113.03Y-45.72
X113.03Y-107.95
X113.03Y-128.27
X114.3Y-127.0
X115.57Y-125.73
X116.84Y-72.39
X116.84Y-124.46
X118.11Y-74.93
X118.11Y-123.19
X119.38Y-77.47
X119.38Y-121.92
X120.65Y-80.01
X120.65Y-120.65
X123.19Y-82.55
X123.19Y-119.38
X124.46Y-85.09
X125.73Y-87.63
X127.0Y-90.17
X128.27Y-92.71
X129.54Y-95.25
X130.81Y-97.79
X132.08Y-100.33
X133.35Y-107.95
X137.16Y-57.15
X137.16Y-110.49
X138.43Y-105.41
X144.78Y-114.3
X147.32Y-116.84
X149.86Y-115.57
X152.4Y-118.11
X165.1Y-85.09
X166.37Y-87.63
X167.64Y-90.17
X170.18Y-97.79
X171.45Y-95.25
X172.72Y-92.71
X173.99Y-100.33
X175.26Y-116.84
X176.53Y-121.92
X177.8Y-119.38
X179.07Y-120.65
X180.34Y-124.46
X181.61Y-123.19
X182.88Y-115.57
X184.15Y-118.11
X185.42Y-113.03
X186.69Y-67.31
X186.69Y-101.6
X187.96Y-66.04
X187.96Y-104.14
X187.96Y-104.14
X189.23Y-64.77
X189.23Y-106.68
X190.5Y-63.5
X190.5Y-109.22
X191.77Y-62.23
X191.77Y-111.76
X193.04Y-60.96
X193.04Y-114.3
X194.31Y-57.15
X196.85Y-60.96
X196.85Y-99.06
X198.12Y-68.58
X198.12Y-99.06
X198.12Y-129.54
X199.39Y-35.56
X199.39Y-96.52
X199.39Y-128.27
X200.66Y-69.85
X200.66Y-96.52
X200.66Y-127.0
X201.93Y-38.1
X201.93Y-93.98
X201.93Y-125.73
X203.105Y-71.215
X203.2Y-93.98
X203.2Y-124.46
X204.47Y-40.64
X204.47Y-91.44
X204.47Y-123.19
X205.74Y-73.66
X205.74Y-91.44
X205.74Y-121.92
X207.01Y-43.18
X207.01Y-88.9
X207.01Y-120.65
X208.28Y-45.72
X208.28Y-86.36
X209.55Y-48.26
X209.55Y-83.82
X209.55Y-119.38
X210.82Y-50.8
X210.82Y-81.28
X210.82Y-85.09
X212.09Y-53.34
X212.09Y-78.74
X212.09Y-87.63
X213.36Y-90.17
X214.63Y-92.71
X215.9Y-74.93
X215.9Y-95.25
X217.17Y-97.79
X218.44Y-100.33
X222.25Y-76.2
X223.52Y-110.49
X226.06Y-107.95
X228.6Y-105.41
X231.14Y-113.03
X233.68Y-116.84
X236.22Y-58.42
X236.22Y-115.57
X238.76Y-118.11
T2
X96.6Y-30.48
X101.6Y-30.48
X229.87Y-33.02
X229.87Y-35.56
X229.87Y-38.1
X229.87Y-40.64
X229.87Y-43.18
X229.87Y-45.72
X229.87Y-48.26
X229.87Y-50.8
X229.87Y-53.34
X229.87Y-55.88
X237.49Y-33.02
X237.49Y-35.56
X237.49Y-38.1
X237.49Y-40.64
X237.49Y-43.18
X237.49Y-45.72
X237.49Y-48.26
X237.49Y-50.8
X237.49Y-53.34
X237.49Y-55.88
X115.57Y-35.56
X115.57Y-38.1
X115.57Y-40.64
X115.57Y-43.18
X115.57Y-45.72
X115.57Y-48.26
X115.57Y-50.8
X115.57Y-53.34
X123.19Y-35.56
X123.19Y-38.1
X123.19Y-40.64
X123.19Y-43.18
X123.19Y-45.72
X123.19Y-48.26
X123.19Y-50.8
X123.19Y-53.34
X231.22Y-27.94
X236.22Y-27.94
X95.25Y-35.56
X95.25Y-38.1
X95.25Y-40.64
X95.25Y-43.18
X95.25Y-45.72
X95.25Y-48.26
X95.25Y-50.8
X95.25Y-53.34
X102.87Y-35.56
X102.87Y-38.1
X102.87Y-40.64
X102.87Y-43.18
X102.87Y-45.72
X102.87Y-48.26
X102.87Y-50.8
X102.87Y-53.34
X116.92Y-30.48
X121.92Y-30.48
T3
X63.5Y-44.45
X63.5Y-46.99
X63.5Y-49.53
X63.5Y-52.07
X63.5Y-54.61
X63.5Y-57.15
X63.5Y-59.69
X63.5Y-62.23
X63.5Y-64.77
X63.5Y-67.31
X63.5Y-69.85
X63.5Y-72.39
X63.5Y-74.93
X63.5Y-77.47
X63.5Y-80.01
X63.5Y-82.55
X63.5Y-85.09
X63.5Y-87.63
X63.5Y-90.17
X63.5Y-92.71
X63.5Y-95.25
X63.5Y-97.79
X63.5Y-100.33
X63.5Y-102.87
X63.5Y-105.41
X63.5Y-107.95
X63.5Y-110.49
X63.5Y-113.03
X63.5Y-115.57
X63.5Y-118.11
X63.5Y-120.65
X63.5Y-123.19
X66.04Y-44.45
X66.04Y-46.99
X66.04Y-49.53
X66.04Y-52.07
X66.04Y-54.61
X66.04Y-57.15
X66.04Y-59.69
X66.04Y-62.23
X66.04Y-64.77
X66.04Y-67.31
X66.04Y-69.85
X66.04Y-72.39
X66.04Y-74.93
X66.04Y-77.47
X66.04Y-80.01
X66.04Y-82.55
X66.04Y-85.09
X66.04Y-87.63
X66.04Y-90.17
X66.04Y-92.71
X66.04Y-95.25
X66.04Y-97.79
X66.04Y-100.33
X66.04Y-102.87
X66.04Y-105.41
X66.04Y-107.95
X66.04Y-110.49
X66.04Y-113.03
X66.04Y-115.57
X66.04Y-118.11
X66.04Y-120.65
X66.04Y-123.19
X113.03Y-133.35
X113.03Y-135.89
X115.57Y-133.35
X115.57Y-135.89
X118.11Y-133.35
X118.11Y-135.89
X120.65Y-133.35
X120.65Y-135.89
X123.19Y-133.35
X123.19Y-135.89
X125.73Y-133.35
X125.73Y-135.89
X128.27Y-133.35
X128.27Y-135.89
X130.81Y-133.35
X130.81Y-135.89
X133.35Y-133.35
X133.35Y-135.89
X135.89Y-133.35
X135.89Y-135.89
X138.43Y-133.35
X138.43Y-135.89
X140.97Y-133.35
X140.97Y-135.89
X143.51Y-133.35
X143.51Y-135.89
X146.05Y-133.35
X146.05Y-135.89
X148.59Y-133.35
X148.59Y-135.89
X151.13Y-133.35
X151.13Y-135.89
X153.67Y-133.35
X153.67Y-135.89
X243.84Y-38.1
X243.84Y-40.64
X243.84Y-43.18
X243.84Y-45.72
X243.84Y-48.26
X243.84Y-50.8
X243.84Y-53.34
X243.84Y-55.88
X243.84Y-58.42
X243.84Y-60.96
X243.84Y-63.5
X243.84Y-66.04
X243.84Y-68.58
X246.38Y-38.1
X246.38Y-40.64
X246.38Y-43.18
X246.38Y-45.72
X246.38Y-48.26
X246.38Y-50.8
X246.38Y-53.34
X246.38Y-55.88
X246.38Y-58.42
X246.38Y-60.96
X246.38Y-63.5
X246.38Y-66.04
X246.38Y-68.58
X134.62Y-35.56
X134.62Y-38.1
X134.62Y-40.64
X134.62Y-43.18
X134.62Y-45.72
X134.62Y-48.26
X134.62Y-50.8
X134.62Y-53.34
X236.22Y-67.31
X236.22Y-69.85
X236.22Y-72.39
X238.76Y-67.31
X238.76Y-69.85
X238.76Y-72.39
X243.84Y-92.71
X243.84Y-95.25
X243.84Y-97.79
X243.84Y-100.33
X243.84Y-102.87
X243.84Y-105.41
X243.84Y-107.95
X243.84Y-110.49
X243.84Y-113.03
X243.84Y-115.57
X246.38Y-92.71
X246.38Y-95.25
X246.38Y-97.79
X246.38Y-100.33
X246.38Y-102.87
X246.38Y-105.41
X246.38Y-107.95
X246.38Y-110.49
X246.38Y-113.03
X246.38Y-115.57
X199.39Y-133.35
X199.39Y-135.89
X201.93Y-133.35
X201.93Y-135.89
X204.47Y-133.35
X204.47Y-135.89
X207.01Y-133.35
X207.01Y-135.89
X209.55Y-133.35
X209.55Y-135.89
X212.09Y-133.35
X212.09Y-135.89
X214.63Y-133.35
X214.63Y-135.89
X217.17Y-133.35
X217.17Y-135.89
X219.71Y-133.35
X219.71Y-135.89
X222.25Y-133.35
X222.25Y-135.89
X224.79Y-133.35
X224.79Y-135.89
X227.33Y-133.35
X227.33Y-135.89
X229.87Y-133.35
X229.87Y-135.89
X232.41Y-133.35
X232.41Y-135.89
X234.95Y-133.35
X234.95Y-135.89
X237.49Y-133.35
X237.49Y-135.89
X240.03Y-133.35
X240.03Y-135.89
X157.48Y-35.56
X157.48Y-38.1
X157.48Y-40.64
X157.48Y-43.18
X157.48Y-45.72
X157.48Y-48.26
X157.48Y-50.8
X157.48Y-53.34
X171.45Y-35.56
X171.45Y-38.1
X173.99Y-35.56
X173.99Y-38.1
X176.53Y-35.56
X176.53Y-38.1
X179.07Y-35.56
X179.07Y-38.1
X181.61Y-35.56
X181.61Y-38.1
X184.15Y-35.56
X184.15Y-38.1
X186.69Y-35.56
X186.69Y-38.1
X189.23Y-35.56
X189.23Y-38.1
X191.77Y-35.56
X191.77Y-38.1
X194.31Y-35.56
X194.31Y-38.1
X132.08Y-35.56
X132.08Y-38.1
X132.08Y-40.64
X132.08Y-43.18
X132.08Y-45.72
X132.08Y-48.26
X132.08Y-50.8
X132.08Y-53.34
X146.05Y-35.56
X146.05Y-38.1
X146.05Y-40.64
X146.05Y-43.18
X146.05Y-45.72
X146.05Y-48.26
X146.05Y-50.8
X146.05Y-53.34
X148.59Y-35.56
X148.59Y-38.1
X148.59Y-40.64
X148.59Y-43.18
X148.59Y-45.72
X148.59Y-48.26
X148.59Y-50.8
X148.59Y-53.34
X143.51Y-35.56
X143.51Y-38.1
X143.51Y-40.64
X143.51Y-43.18
X143.51Y-45.72
X143.51Y-48.26
X143.51Y-50.8
X143.51Y-53.34
X109.22Y-40.64
X109.22Y-43.18
X109.22Y-45.72
X154.94Y-35.56
X154.94Y-38.1
X154.94Y-40.64
X154.94Y-43.18
X154.94Y-45.72
X154.94Y-48.26
X154.94Y-50.8
X154.94Y-53.34
X137.16Y-35.56
X137.16Y-38.1
X137.16Y-40.64
X137.16Y-43.18
X137.16Y-45.72
X137.16Y-48.26
X137.16Y-50.8
X137.16Y-53.34
T4
X228.6Y-63.5
X228.6Y-83.82
X71.12Y-30.48
X91.44Y-30.48
X215.9Y-63.5
X215.9Y-83.82
X222.25Y-63.5
X222.25Y-83.82
T5
X107.19Y-135.13
X159.51Y-135.13
X245.62Y-32.26
X245.62Y-74.42
X245.62Y-86.87
X245.62Y-121.41
X193.55Y-135.13
X245.87Y-135.13
T3
G00X90.44Y-134.97
M15
G01X92.44Y-134.97
M16
G05
G00X90.44Y-140.97
M15
G01X92.44Y-140.97
M16
G05
G00X96.14Y-138.97
M15
G01X96.14Y-136.97
M16
G05
G00X77.74Y-134.62
M15
G01X79.74Y-134.62
M16
G05
G00X77.74Y-140.62
M15
G01X79.74Y-140.62
M16
G05
G00X83.44Y-138.62
M15
G01X83.44Y-136.62
M16
G05
G00X175.53Y-133.7
M15
G01X177.53Y-133.7
M16
G05
G00X175.53Y-139.7
M15
G01X177.53Y-139.7
M16
G05
G00X181.23Y-137.7
M15
G01X181.23Y-135.7
M16
G05
G00X65.04Y-134.62
M15
G01X67.04Y-134.62
M16
G05
G00X65.04Y-140.62
M15
G01X67.04Y-140.62
M16
G05
G00X70.74Y-138.62
M15
G01X70.74Y-136.62
M16
G05
T0
M30
