G04 #@! TF.GenerationSoftware,KiCad,Pcbnew,(5.1.2-1)-1*
G04 #@! TF.CreationDate,2019-08-04T21:57:59+02:00*
G04 #@! TF.ProjectId,AtomIOExt,41746f6d-494f-4457-9874-2e6b69636164,rev?*
G04 #@! TF.SameCoordinates,Original*
G04 #@! TF.FileFunction,Soldermask,Top*
G04 #@! TF.FilePolarity,Negative*
%FSLAX46Y46*%
G04 Gerber Fmt 4.6, Leading zero omitted, Abs format (unit mm)*
G04 Created by KiCad (PCBNEW (5.1.2-1)-1) date 2019-08-04 21:57:59*
%MOMM*%
%LPD*%
G04 APERTURE LIST*
%ADD10R,1.700000X1.700000*%
%ADD11O,1.700000X1.700000*%
%ADD12C,1.600000*%
%ADD13R,3.500000X3.500000*%
%ADD14C,0.100000*%
%ADD15C,3.000000*%
%ADD16C,3.500000*%
%ADD17C,4.000000*%
%ADD18C,1.700000*%
%ADD19C,2.400000*%
%ADD20O,2.400000X2.400000*%
%ADD21R,2.400000X1.600000*%
%ADD22O,2.400000X1.600000*%
G04 APERTURE END LIST*
D10*
X171450000Y-35560000D03*
D11*
X171450000Y-38100000D03*
X173990000Y-35560000D03*
X173990000Y-38100000D03*
X176530000Y-35560000D03*
X176530000Y-38100000D03*
X179070000Y-35560000D03*
X179070000Y-38100000D03*
X181610000Y-35560000D03*
X181610000Y-38100000D03*
X184150000Y-35560000D03*
X184150000Y-38100000D03*
X186690000Y-35560000D03*
X186690000Y-38100000D03*
X189230000Y-35560000D03*
X189230000Y-38100000D03*
X191770000Y-35560000D03*
X191770000Y-38100000D03*
X194310000Y-35560000D03*
X194310000Y-38100000D03*
D12*
X101600000Y-30480000D03*
X96600000Y-30480000D03*
X116920000Y-30480000D03*
X121920000Y-30480000D03*
X236220000Y-27940000D03*
X231220000Y-27940000D03*
D11*
X134620000Y-53340000D03*
X134620000Y-50800000D03*
X134620000Y-48260000D03*
X134620000Y-45720000D03*
X134620000Y-43180000D03*
X134620000Y-40640000D03*
X134620000Y-38100000D03*
D10*
X134620000Y-35560000D03*
X137160000Y-35560000D03*
D11*
X137160000Y-38100000D03*
X137160000Y-40640000D03*
X137160000Y-43180000D03*
X137160000Y-45720000D03*
X137160000Y-48260000D03*
X137160000Y-50800000D03*
X137160000Y-53340000D03*
X132080000Y-53340000D03*
X132080000Y-50800000D03*
X132080000Y-48260000D03*
X132080000Y-45720000D03*
X132080000Y-43180000D03*
X132080000Y-40640000D03*
X132080000Y-38100000D03*
D10*
X132080000Y-35560000D03*
X146050000Y-35560000D03*
D11*
X146050000Y-38100000D03*
X146050000Y-40640000D03*
X146050000Y-43180000D03*
X146050000Y-45720000D03*
X146050000Y-48260000D03*
X146050000Y-50800000D03*
X146050000Y-53340000D03*
D10*
X148590000Y-35560000D03*
D11*
X148590000Y-38100000D03*
X148590000Y-40640000D03*
X148590000Y-43180000D03*
X148590000Y-45720000D03*
X148590000Y-48260000D03*
X148590000Y-50800000D03*
X148590000Y-53340000D03*
X143510000Y-53340000D03*
X143510000Y-50800000D03*
X143510000Y-48260000D03*
X143510000Y-45720000D03*
X143510000Y-43180000D03*
X143510000Y-40640000D03*
X143510000Y-38100000D03*
D10*
X143510000Y-35560000D03*
D11*
X154940000Y-53340000D03*
X154940000Y-50800000D03*
X154940000Y-48260000D03*
X154940000Y-45720000D03*
X154940000Y-43180000D03*
X154940000Y-40640000D03*
X154940000Y-38100000D03*
D10*
X154940000Y-35560000D03*
X157480000Y-35560000D03*
D11*
X157480000Y-38100000D03*
X157480000Y-40640000D03*
X157480000Y-43180000D03*
X157480000Y-45720000D03*
X157480000Y-48260000D03*
X157480000Y-50800000D03*
X157480000Y-53340000D03*
D13*
X176530000Y-133700000D03*
D14*
G36*
X177603513Y-138203611D02*
G01*
X177676318Y-138214411D01*
X177747714Y-138232295D01*
X177817013Y-138257090D01*
X177883548Y-138288559D01*
X177946678Y-138326398D01*
X178005795Y-138370242D01*
X178060330Y-138419670D01*
X178109758Y-138474205D01*
X178153602Y-138533322D01*
X178191441Y-138596452D01*
X178222910Y-138662987D01*
X178247705Y-138732286D01*
X178265589Y-138803682D01*
X178276389Y-138876487D01*
X178280000Y-138950000D01*
X178280000Y-140450000D01*
X178276389Y-140523513D01*
X178265589Y-140596318D01*
X178247705Y-140667714D01*
X178222910Y-140737013D01*
X178191441Y-140803548D01*
X178153602Y-140866678D01*
X178109758Y-140925795D01*
X178060330Y-140980330D01*
X178005795Y-141029758D01*
X177946678Y-141073602D01*
X177883548Y-141111441D01*
X177817013Y-141142910D01*
X177747714Y-141167705D01*
X177676318Y-141185589D01*
X177603513Y-141196389D01*
X177530000Y-141200000D01*
X175530000Y-141200000D01*
X175456487Y-141196389D01*
X175383682Y-141185589D01*
X175312286Y-141167705D01*
X175242987Y-141142910D01*
X175176452Y-141111441D01*
X175113322Y-141073602D01*
X175054205Y-141029758D01*
X174999670Y-140980330D01*
X174950242Y-140925795D01*
X174906398Y-140866678D01*
X174868559Y-140803548D01*
X174837090Y-140737013D01*
X174812295Y-140667714D01*
X174794411Y-140596318D01*
X174783611Y-140523513D01*
X174780000Y-140450000D01*
X174780000Y-138950000D01*
X174783611Y-138876487D01*
X174794411Y-138803682D01*
X174812295Y-138732286D01*
X174837090Y-138662987D01*
X174868559Y-138596452D01*
X174906398Y-138533322D01*
X174950242Y-138474205D01*
X174999670Y-138419670D01*
X175054205Y-138370242D01*
X175113322Y-138326398D01*
X175176452Y-138288559D01*
X175242987Y-138257090D01*
X175312286Y-138232295D01*
X175383682Y-138214411D01*
X175456487Y-138203611D01*
X175530000Y-138200000D01*
X177530000Y-138200000D01*
X177603513Y-138203611D01*
X177603513Y-138203611D01*
G37*
D15*
X176530000Y-139700000D03*
D14*
G36*
X182190765Y-134954213D02*
G01*
X182275704Y-134966813D01*
X182358999Y-134987677D01*
X182439848Y-135016605D01*
X182517472Y-135053319D01*
X182591124Y-135097464D01*
X182660094Y-135148616D01*
X182723718Y-135206282D01*
X182781384Y-135269906D01*
X182832536Y-135338876D01*
X182876681Y-135412528D01*
X182913395Y-135490152D01*
X182942323Y-135571001D01*
X182963187Y-135654296D01*
X182975787Y-135739235D01*
X182980000Y-135825000D01*
X182980000Y-137575000D01*
X182975787Y-137660765D01*
X182963187Y-137745704D01*
X182942323Y-137828999D01*
X182913395Y-137909848D01*
X182876681Y-137987472D01*
X182832536Y-138061124D01*
X182781384Y-138130094D01*
X182723718Y-138193718D01*
X182660094Y-138251384D01*
X182591124Y-138302536D01*
X182517472Y-138346681D01*
X182439848Y-138383395D01*
X182358999Y-138412323D01*
X182275704Y-138433187D01*
X182190765Y-138445787D01*
X182105000Y-138450000D01*
X180355000Y-138450000D01*
X180269235Y-138445787D01*
X180184296Y-138433187D01*
X180101001Y-138412323D01*
X180020152Y-138383395D01*
X179942528Y-138346681D01*
X179868876Y-138302536D01*
X179799906Y-138251384D01*
X179736282Y-138193718D01*
X179678616Y-138130094D01*
X179627464Y-138061124D01*
X179583319Y-137987472D01*
X179546605Y-137909848D01*
X179517677Y-137828999D01*
X179496813Y-137745704D01*
X179484213Y-137660765D01*
X179480000Y-137575000D01*
X179480000Y-135825000D01*
X179484213Y-135739235D01*
X179496813Y-135654296D01*
X179517677Y-135571001D01*
X179546605Y-135490152D01*
X179583319Y-135412528D01*
X179627464Y-135338876D01*
X179678616Y-135269906D01*
X179736282Y-135206282D01*
X179799906Y-135148616D01*
X179868876Y-135097464D01*
X179942528Y-135053319D01*
X180020152Y-135016605D01*
X180101001Y-134987677D01*
X180184296Y-134966813D01*
X180269235Y-134954213D01*
X180355000Y-134950000D01*
X182105000Y-134950000D01*
X182190765Y-134954213D01*
X182190765Y-134954213D01*
G37*
D16*
X181230000Y-136700000D03*
D14*
G36*
X97100765Y-136224213D02*
G01*
X97185704Y-136236813D01*
X97268999Y-136257677D01*
X97349848Y-136286605D01*
X97427472Y-136323319D01*
X97501124Y-136367464D01*
X97570094Y-136418616D01*
X97633718Y-136476282D01*
X97691384Y-136539906D01*
X97742536Y-136608876D01*
X97786681Y-136682528D01*
X97823395Y-136760152D01*
X97852323Y-136841001D01*
X97873187Y-136924296D01*
X97885787Y-137009235D01*
X97890000Y-137095000D01*
X97890000Y-138845000D01*
X97885787Y-138930765D01*
X97873187Y-139015704D01*
X97852323Y-139098999D01*
X97823395Y-139179848D01*
X97786681Y-139257472D01*
X97742536Y-139331124D01*
X97691384Y-139400094D01*
X97633718Y-139463718D01*
X97570094Y-139521384D01*
X97501124Y-139572536D01*
X97427472Y-139616681D01*
X97349848Y-139653395D01*
X97268999Y-139682323D01*
X97185704Y-139703187D01*
X97100765Y-139715787D01*
X97015000Y-139720000D01*
X95265000Y-139720000D01*
X95179235Y-139715787D01*
X95094296Y-139703187D01*
X95011001Y-139682323D01*
X94930152Y-139653395D01*
X94852528Y-139616681D01*
X94778876Y-139572536D01*
X94709906Y-139521384D01*
X94646282Y-139463718D01*
X94588616Y-139400094D01*
X94537464Y-139331124D01*
X94493319Y-139257472D01*
X94456605Y-139179848D01*
X94427677Y-139098999D01*
X94406813Y-139015704D01*
X94394213Y-138930765D01*
X94390000Y-138845000D01*
X94390000Y-137095000D01*
X94394213Y-137009235D01*
X94406813Y-136924296D01*
X94427677Y-136841001D01*
X94456605Y-136760152D01*
X94493319Y-136682528D01*
X94537464Y-136608876D01*
X94588616Y-136539906D01*
X94646282Y-136476282D01*
X94709906Y-136418616D01*
X94778876Y-136367464D01*
X94852528Y-136323319D01*
X94930152Y-136286605D01*
X95011001Y-136257677D01*
X95094296Y-136236813D01*
X95179235Y-136224213D01*
X95265000Y-136220000D01*
X97015000Y-136220000D01*
X97100765Y-136224213D01*
X97100765Y-136224213D01*
G37*
D16*
X96140000Y-137970000D03*
D14*
G36*
X92513513Y-139473611D02*
G01*
X92586318Y-139484411D01*
X92657714Y-139502295D01*
X92727013Y-139527090D01*
X92793548Y-139558559D01*
X92856678Y-139596398D01*
X92915795Y-139640242D01*
X92970330Y-139689670D01*
X93019758Y-139744205D01*
X93063602Y-139803322D01*
X93101441Y-139866452D01*
X93132910Y-139932987D01*
X93157705Y-140002286D01*
X93175589Y-140073682D01*
X93186389Y-140146487D01*
X93190000Y-140220000D01*
X93190000Y-141720000D01*
X93186389Y-141793513D01*
X93175589Y-141866318D01*
X93157705Y-141937714D01*
X93132910Y-142007013D01*
X93101441Y-142073548D01*
X93063602Y-142136678D01*
X93019758Y-142195795D01*
X92970330Y-142250330D01*
X92915795Y-142299758D01*
X92856678Y-142343602D01*
X92793548Y-142381441D01*
X92727013Y-142412910D01*
X92657714Y-142437705D01*
X92586318Y-142455589D01*
X92513513Y-142466389D01*
X92440000Y-142470000D01*
X90440000Y-142470000D01*
X90366487Y-142466389D01*
X90293682Y-142455589D01*
X90222286Y-142437705D01*
X90152987Y-142412910D01*
X90086452Y-142381441D01*
X90023322Y-142343602D01*
X89964205Y-142299758D01*
X89909670Y-142250330D01*
X89860242Y-142195795D01*
X89816398Y-142136678D01*
X89778559Y-142073548D01*
X89747090Y-142007013D01*
X89722295Y-141937714D01*
X89704411Y-141866318D01*
X89693611Y-141793513D01*
X89690000Y-141720000D01*
X89690000Y-140220000D01*
X89693611Y-140146487D01*
X89704411Y-140073682D01*
X89722295Y-140002286D01*
X89747090Y-139932987D01*
X89778559Y-139866452D01*
X89816398Y-139803322D01*
X89860242Y-139744205D01*
X89909670Y-139689670D01*
X89964205Y-139640242D01*
X90023322Y-139596398D01*
X90086452Y-139558559D01*
X90152987Y-139527090D01*
X90222286Y-139502295D01*
X90293682Y-139484411D01*
X90366487Y-139473611D01*
X90440000Y-139470000D01*
X92440000Y-139470000D01*
X92513513Y-139473611D01*
X92513513Y-139473611D01*
G37*
D15*
X91440000Y-140970000D03*
D13*
X91440000Y-134970000D03*
X66040000Y-134620000D03*
D14*
G36*
X67113513Y-139123611D02*
G01*
X67186318Y-139134411D01*
X67257714Y-139152295D01*
X67327013Y-139177090D01*
X67393548Y-139208559D01*
X67456678Y-139246398D01*
X67515795Y-139290242D01*
X67570330Y-139339670D01*
X67619758Y-139394205D01*
X67663602Y-139453322D01*
X67701441Y-139516452D01*
X67732910Y-139582987D01*
X67757705Y-139652286D01*
X67775589Y-139723682D01*
X67786389Y-139796487D01*
X67790000Y-139870000D01*
X67790000Y-141370000D01*
X67786389Y-141443513D01*
X67775589Y-141516318D01*
X67757705Y-141587714D01*
X67732910Y-141657013D01*
X67701441Y-141723548D01*
X67663602Y-141786678D01*
X67619758Y-141845795D01*
X67570330Y-141900330D01*
X67515795Y-141949758D01*
X67456678Y-141993602D01*
X67393548Y-142031441D01*
X67327013Y-142062910D01*
X67257714Y-142087705D01*
X67186318Y-142105589D01*
X67113513Y-142116389D01*
X67040000Y-142120000D01*
X65040000Y-142120000D01*
X64966487Y-142116389D01*
X64893682Y-142105589D01*
X64822286Y-142087705D01*
X64752987Y-142062910D01*
X64686452Y-142031441D01*
X64623322Y-141993602D01*
X64564205Y-141949758D01*
X64509670Y-141900330D01*
X64460242Y-141845795D01*
X64416398Y-141786678D01*
X64378559Y-141723548D01*
X64347090Y-141657013D01*
X64322295Y-141587714D01*
X64304411Y-141516318D01*
X64293611Y-141443513D01*
X64290000Y-141370000D01*
X64290000Y-139870000D01*
X64293611Y-139796487D01*
X64304411Y-139723682D01*
X64322295Y-139652286D01*
X64347090Y-139582987D01*
X64378559Y-139516452D01*
X64416398Y-139453322D01*
X64460242Y-139394205D01*
X64509670Y-139339670D01*
X64564205Y-139290242D01*
X64623322Y-139246398D01*
X64686452Y-139208559D01*
X64752987Y-139177090D01*
X64822286Y-139152295D01*
X64893682Y-139134411D01*
X64966487Y-139123611D01*
X65040000Y-139120000D01*
X67040000Y-139120000D01*
X67113513Y-139123611D01*
X67113513Y-139123611D01*
G37*
D15*
X66040000Y-140620000D03*
D14*
G36*
X71700765Y-135874213D02*
G01*
X71785704Y-135886813D01*
X71868999Y-135907677D01*
X71949848Y-135936605D01*
X72027472Y-135973319D01*
X72101124Y-136017464D01*
X72170094Y-136068616D01*
X72233718Y-136126282D01*
X72291384Y-136189906D01*
X72342536Y-136258876D01*
X72386681Y-136332528D01*
X72423395Y-136410152D01*
X72452323Y-136491001D01*
X72473187Y-136574296D01*
X72485787Y-136659235D01*
X72490000Y-136745000D01*
X72490000Y-138495000D01*
X72485787Y-138580765D01*
X72473187Y-138665704D01*
X72452323Y-138748999D01*
X72423395Y-138829848D01*
X72386681Y-138907472D01*
X72342536Y-138981124D01*
X72291384Y-139050094D01*
X72233718Y-139113718D01*
X72170094Y-139171384D01*
X72101124Y-139222536D01*
X72027472Y-139266681D01*
X71949848Y-139303395D01*
X71868999Y-139332323D01*
X71785704Y-139353187D01*
X71700765Y-139365787D01*
X71615000Y-139370000D01*
X69865000Y-139370000D01*
X69779235Y-139365787D01*
X69694296Y-139353187D01*
X69611001Y-139332323D01*
X69530152Y-139303395D01*
X69452528Y-139266681D01*
X69378876Y-139222536D01*
X69309906Y-139171384D01*
X69246282Y-139113718D01*
X69188616Y-139050094D01*
X69137464Y-138981124D01*
X69093319Y-138907472D01*
X69056605Y-138829848D01*
X69027677Y-138748999D01*
X69006813Y-138665704D01*
X68994213Y-138580765D01*
X68990000Y-138495000D01*
X68990000Y-136745000D01*
X68994213Y-136659235D01*
X69006813Y-136574296D01*
X69027677Y-136491001D01*
X69056605Y-136410152D01*
X69093319Y-136332528D01*
X69137464Y-136258876D01*
X69188616Y-136189906D01*
X69246282Y-136126282D01*
X69309906Y-136068616D01*
X69378876Y-136017464D01*
X69452528Y-135973319D01*
X69530152Y-135936605D01*
X69611001Y-135907677D01*
X69694296Y-135886813D01*
X69779235Y-135874213D01*
X69865000Y-135870000D01*
X71615000Y-135870000D01*
X71700765Y-135874213D01*
X71700765Y-135874213D01*
G37*
D16*
X70740000Y-137620000D03*
D14*
G36*
X84400765Y-135874213D02*
G01*
X84485704Y-135886813D01*
X84568999Y-135907677D01*
X84649848Y-135936605D01*
X84727472Y-135973319D01*
X84801124Y-136017464D01*
X84870094Y-136068616D01*
X84933718Y-136126282D01*
X84991384Y-136189906D01*
X85042536Y-136258876D01*
X85086681Y-136332528D01*
X85123395Y-136410152D01*
X85152323Y-136491001D01*
X85173187Y-136574296D01*
X85185787Y-136659235D01*
X85190000Y-136745000D01*
X85190000Y-138495000D01*
X85185787Y-138580765D01*
X85173187Y-138665704D01*
X85152323Y-138748999D01*
X85123395Y-138829848D01*
X85086681Y-138907472D01*
X85042536Y-138981124D01*
X84991384Y-139050094D01*
X84933718Y-139113718D01*
X84870094Y-139171384D01*
X84801124Y-139222536D01*
X84727472Y-139266681D01*
X84649848Y-139303395D01*
X84568999Y-139332323D01*
X84485704Y-139353187D01*
X84400765Y-139365787D01*
X84315000Y-139370000D01*
X82565000Y-139370000D01*
X82479235Y-139365787D01*
X82394296Y-139353187D01*
X82311001Y-139332323D01*
X82230152Y-139303395D01*
X82152528Y-139266681D01*
X82078876Y-139222536D01*
X82009906Y-139171384D01*
X81946282Y-139113718D01*
X81888616Y-139050094D01*
X81837464Y-138981124D01*
X81793319Y-138907472D01*
X81756605Y-138829848D01*
X81727677Y-138748999D01*
X81706813Y-138665704D01*
X81694213Y-138580765D01*
X81690000Y-138495000D01*
X81690000Y-136745000D01*
X81694213Y-136659235D01*
X81706813Y-136574296D01*
X81727677Y-136491001D01*
X81756605Y-136410152D01*
X81793319Y-136332528D01*
X81837464Y-136258876D01*
X81888616Y-136189906D01*
X81946282Y-136126282D01*
X82009906Y-136068616D01*
X82078876Y-136017464D01*
X82152528Y-135973319D01*
X82230152Y-135936605D01*
X82311001Y-135907677D01*
X82394296Y-135886813D01*
X82479235Y-135874213D01*
X82565000Y-135870000D01*
X84315000Y-135870000D01*
X84400765Y-135874213D01*
X84400765Y-135874213D01*
G37*
D16*
X83440000Y-137620000D03*
D14*
G36*
X79813513Y-139123611D02*
G01*
X79886318Y-139134411D01*
X79957714Y-139152295D01*
X80027013Y-139177090D01*
X80093548Y-139208559D01*
X80156678Y-139246398D01*
X80215795Y-139290242D01*
X80270330Y-139339670D01*
X80319758Y-139394205D01*
X80363602Y-139453322D01*
X80401441Y-139516452D01*
X80432910Y-139582987D01*
X80457705Y-139652286D01*
X80475589Y-139723682D01*
X80486389Y-139796487D01*
X80490000Y-139870000D01*
X80490000Y-141370000D01*
X80486389Y-141443513D01*
X80475589Y-141516318D01*
X80457705Y-141587714D01*
X80432910Y-141657013D01*
X80401441Y-141723548D01*
X80363602Y-141786678D01*
X80319758Y-141845795D01*
X80270330Y-141900330D01*
X80215795Y-141949758D01*
X80156678Y-141993602D01*
X80093548Y-142031441D01*
X80027013Y-142062910D01*
X79957714Y-142087705D01*
X79886318Y-142105589D01*
X79813513Y-142116389D01*
X79740000Y-142120000D01*
X77740000Y-142120000D01*
X77666487Y-142116389D01*
X77593682Y-142105589D01*
X77522286Y-142087705D01*
X77452987Y-142062910D01*
X77386452Y-142031441D01*
X77323322Y-141993602D01*
X77264205Y-141949758D01*
X77209670Y-141900330D01*
X77160242Y-141845795D01*
X77116398Y-141786678D01*
X77078559Y-141723548D01*
X77047090Y-141657013D01*
X77022295Y-141587714D01*
X77004411Y-141516318D01*
X76993611Y-141443513D01*
X76990000Y-141370000D01*
X76990000Y-139870000D01*
X76993611Y-139796487D01*
X77004411Y-139723682D01*
X77022295Y-139652286D01*
X77047090Y-139582987D01*
X77078559Y-139516452D01*
X77116398Y-139453322D01*
X77160242Y-139394205D01*
X77209670Y-139339670D01*
X77264205Y-139290242D01*
X77323322Y-139246398D01*
X77386452Y-139208559D01*
X77452987Y-139177090D01*
X77522286Y-139152295D01*
X77593682Y-139134411D01*
X77666487Y-139123611D01*
X77740000Y-139120000D01*
X79740000Y-139120000D01*
X79813513Y-139123611D01*
X79813513Y-139123611D01*
G37*
D15*
X78740000Y-140620000D03*
D13*
X78740000Y-134620000D03*
D17*
X245620000Y-121410000D03*
X245620000Y-86870000D03*
D10*
X243840000Y-92710000D03*
D18*
X246380000Y-92710000D03*
X243840000Y-95250000D03*
X246380000Y-95250000D03*
X243840000Y-97790000D03*
X246380000Y-97790000D03*
X243840000Y-100330000D03*
X246380000Y-100330000D03*
X243840000Y-102870000D03*
X246380000Y-102870000D03*
X243840000Y-105410000D03*
X246380000Y-105410000D03*
X243840000Y-107950000D03*
X246380000Y-107950000D03*
X243840000Y-110490000D03*
X246380000Y-110490000D03*
X243840000Y-113030000D03*
X246380000Y-113030000D03*
X243840000Y-115570000D03*
X246380000Y-115570000D03*
D17*
X245620000Y-74420000D03*
X245620000Y-32260000D03*
D18*
X243840000Y-38100000D03*
X246380000Y-38100000D03*
X243840000Y-40640000D03*
X246380000Y-40640000D03*
X243840000Y-43180000D03*
X246380000Y-43180000D03*
X243840000Y-45720000D03*
X246380000Y-45720000D03*
X243840000Y-48260000D03*
X246380000Y-48260000D03*
X243840000Y-50800000D03*
X246380000Y-50800000D03*
X243840000Y-53340000D03*
X246380000Y-53340000D03*
X243840000Y-55880000D03*
X246380000Y-55880000D03*
X243840000Y-58420000D03*
X246380000Y-58420000D03*
X243840000Y-60960000D03*
X246380000Y-60960000D03*
X243840000Y-63500000D03*
X246380000Y-63500000D03*
X243840000Y-66040000D03*
X246380000Y-66040000D03*
X243840000Y-68580000D03*
X246380000Y-68580000D03*
D10*
X63500000Y-44450000D03*
D18*
X66040000Y-44450000D03*
X63500000Y-46990000D03*
X66040000Y-46990000D03*
X63500000Y-49530000D03*
X66040000Y-49530000D03*
X63500000Y-52070000D03*
X66040000Y-52070000D03*
X63500000Y-54610000D03*
X66040000Y-54610000D03*
X63500000Y-57150000D03*
X66040000Y-57150000D03*
X63500000Y-59690000D03*
X66040000Y-59690000D03*
X63500000Y-62230000D03*
X66040000Y-62230000D03*
X63500000Y-64770000D03*
X66040000Y-64770000D03*
X63500000Y-67310000D03*
X66040000Y-67310000D03*
X63500000Y-69850000D03*
X66040000Y-69850000D03*
X63500000Y-72390000D03*
X66040000Y-72390000D03*
X63500000Y-74930000D03*
X66040000Y-74930000D03*
X63500000Y-77470000D03*
X66040000Y-77470000D03*
X63500000Y-80010000D03*
X66040000Y-80010000D03*
X63500000Y-82550000D03*
X66040000Y-82550000D03*
X63500000Y-85090000D03*
X66040000Y-85090000D03*
X63500000Y-87630000D03*
X66040000Y-87630000D03*
X63500000Y-90170000D03*
X66040000Y-90170000D03*
X63500000Y-92710000D03*
X66040000Y-92710000D03*
X63500000Y-95250000D03*
X66040000Y-95250000D03*
X63500000Y-97790000D03*
X66040000Y-97790000D03*
X63500000Y-100330000D03*
X66040000Y-100330000D03*
X63500000Y-102870000D03*
X66040000Y-102870000D03*
X63500000Y-105410000D03*
X66040000Y-105410000D03*
X63500000Y-107950000D03*
X66040000Y-107950000D03*
X63500000Y-110490000D03*
X66040000Y-110490000D03*
X63500000Y-113030000D03*
X66040000Y-113030000D03*
X63500000Y-115570000D03*
X66040000Y-115570000D03*
X63500000Y-118110000D03*
X66040000Y-118110000D03*
X63500000Y-120650000D03*
X66040000Y-120650000D03*
X63500000Y-123190000D03*
X66040000Y-123190000D03*
D16*
X60960000Y-39370000D03*
X60960000Y-128270000D03*
D10*
X236220000Y-67310000D03*
D11*
X238760000Y-67310000D03*
X236220000Y-69850000D03*
X238760000Y-69850000D03*
X236220000Y-72390000D03*
X238760000Y-72390000D03*
D10*
X109220000Y-40640000D03*
D11*
X109220000Y-43180000D03*
X109220000Y-45720000D03*
D17*
X245870000Y-135130000D03*
X193550000Y-135130000D03*
D10*
X240030000Y-133350000D03*
D18*
X240030000Y-135890000D03*
X237490000Y-133350000D03*
X237490000Y-135890000D03*
X234950000Y-133350000D03*
X234950000Y-135890000D03*
X232410000Y-133350000D03*
X232410000Y-135890000D03*
X229870000Y-133350000D03*
X229870000Y-135890000D03*
X227330000Y-133350000D03*
X227330000Y-135890000D03*
X224790000Y-133350000D03*
X224790000Y-135890000D03*
X222250000Y-133350000D03*
X222250000Y-135890000D03*
X219710000Y-133350000D03*
X219710000Y-135890000D03*
X217170000Y-133350000D03*
X217170000Y-135890000D03*
X214630000Y-133350000D03*
X214630000Y-135890000D03*
X212090000Y-133350000D03*
X212090000Y-135890000D03*
X209550000Y-133350000D03*
X209550000Y-135890000D03*
X207010000Y-133350000D03*
X207010000Y-135890000D03*
X204470000Y-133350000D03*
X204470000Y-135890000D03*
X201930000Y-133350000D03*
X201930000Y-135890000D03*
X199390000Y-133350000D03*
X199390000Y-135890000D03*
X113030000Y-135890000D03*
X113030000Y-133350000D03*
X115570000Y-135890000D03*
X115570000Y-133350000D03*
X118110000Y-135890000D03*
X118110000Y-133350000D03*
X120650000Y-135890000D03*
X120650000Y-133350000D03*
X123190000Y-135890000D03*
X123190000Y-133350000D03*
X125730000Y-135890000D03*
X125730000Y-133350000D03*
X128270000Y-135890000D03*
X128270000Y-133350000D03*
X130810000Y-135890000D03*
X130810000Y-133350000D03*
X133350000Y-135890000D03*
X133350000Y-133350000D03*
X135890000Y-135890000D03*
X135890000Y-133350000D03*
X138430000Y-135890000D03*
X138430000Y-133350000D03*
X140970000Y-135890000D03*
X140970000Y-133350000D03*
X143510000Y-135890000D03*
X143510000Y-133350000D03*
X146050000Y-135890000D03*
X146050000Y-133350000D03*
X148590000Y-135890000D03*
X148590000Y-133350000D03*
X151130000Y-135890000D03*
X151130000Y-133350000D03*
X153670000Y-135890000D03*
D10*
X153670000Y-133350000D03*
D17*
X107190000Y-135130000D03*
X159510000Y-135130000D03*
D19*
X228600000Y-63500000D03*
D20*
X228600000Y-83820000D03*
X222250000Y-83820000D03*
D19*
X222250000Y-63500000D03*
X215900000Y-83820000D03*
D20*
X215900000Y-63500000D03*
D21*
X229870000Y-33020000D03*
D22*
X237490000Y-55880000D03*
X229870000Y-35560000D03*
X237490000Y-53340000D03*
X229870000Y-38100000D03*
X237490000Y-50800000D03*
X229870000Y-40640000D03*
X237490000Y-48260000D03*
X229870000Y-43180000D03*
X237490000Y-45720000D03*
X229870000Y-45720000D03*
X237490000Y-43180000D03*
X229870000Y-48260000D03*
X237490000Y-40640000D03*
X229870000Y-50800000D03*
X237490000Y-38100000D03*
X229870000Y-53340000D03*
X237490000Y-35560000D03*
X229870000Y-55880000D03*
X237490000Y-33020000D03*
D21*
X115570000Y-35560000D03*
D22*
X123190000Y-53340000D03*
X115570000Y-38100000D03*
X123190000Y-50800000D03*
X115570000Y-40640000D03*
X123190000Y-48260000D03*
X115570000Y-43180000D03*
X123190000Y-45720000D03*
X115570000Y-45720000D03*
X123190000Y-43180000D03*
X115570000Y-48260000D03*
X123190000Y-40640000D03*
X115570000Y-50800000D03*
X123190000Y-38100000D03*
X115570000Y-53340000D03*
X123190000Y-35560000D03*
X102870000Y-35560000D03*
X95250000Y-53340000D03*
X102870000Y-38100000D03*
X95250000Y-50800000D03*
X102870000Y-40640000D03*
X95250000Y-48260000D03*
X102870000Y-43180000D03*
X95250000Y-45720000D03*
X102870000Y-45720000D03*
X95250000Y-43180000D03*
X102870000Y-48260000D03*
X95250000Y-40640000D03*
X102870000Y-50800000D03*
X95250000Y-38100000D03*
X102870000Y-53340000D03*
D21*
X95250000Y-35560000D03*
D19*
X71120000Y-30480000D03*
D20*
X91440000Y-30480000D03*
M02*
